<?xml version="1.0" encoding="UTF-8" standalone="no"?>
<svg
   width="20"
   height="20"
   viewBox="0 0 20 20"
   fill="none"
   version="1.1"
   id="svg1"
   sodipodi:docname="arrow_exit_down.svg"
   inkscape:version="1.3 (0e150ed6c4, 2023-07-21)"
   xmlns:inkscape="http://www.inkscape.org/namespaces/inkscape"
   xmlns:sodipodi="http://sodipodi.sourceforge.net/DTD/sodipodi-0.dtd"
   xmlns="http://www.w3.org/2000/svg"
   xmlns:svg="http://www.w3.org/2000/svg">
  <defs
     id="defs1" />
  <sodipodi:namedview
     id="namedview1"
     pagecolor="#ffffff"
     bordercolor="#000000"
     borderopacity="0.25"
     inkscape:showpageshadow="2"
     inkscape:pageopacity="0.0"
     inkscape:pagecheckerboard="0"
     inkscape:deskcolor="#d1d1d1"
     inkscape:zoom="88.55"
     inkscape:cx="10"
     inkscape:cy="10"
     inkscape:window-width="3840"
     inkscape:window-height="2054"
     inkscape:window-x="2869"
     inkscape:window-y="-11"
     inkscape:window-maximized="1"
     inkscape:current-layer="svg1" />
  <path
     d="m 2.55,12 c 0,0.4142 0.3358,0.75 0.75,0.75 0.4142,0 0.75,-0.3358 0.75,-0.75 V 5.75 c 0,-1.10457 0.8954,-2 2,-2 h 8 c 1.10457,0 2,0.89543 2,2 V 12 c 0,0.4142 0.33579,0.75 0.75,0.75 0.41421,0 0.75,-0.3358 0.75,-0.75 V 5.75 c 0,-1.933 -1.567,-3.5 -3.5,-3.5 h -8 c -1.933,0 -3.5,1.567 -3.5,3.5 z m 11.3011,1.4913 c 0.28095,0.3044 0.26197,0.7788 -0.04239,1.0598 l -3.25,3 c -0.2873,0.2652 -0.73011,0.2652 -1.01741,0 l -3.25,-3 C 5.9869,14.2701 5.9679,13.7957 6.2489,13.4913 6.5298,13.1869 7.0043,13.1679 7.3087,13.4489 L 9.3,15.287 V 7.5 c 0,-0.41421 0.3358,-0.75 0.75,-0.75 0.41421,0 0.75,0.33579 0.75,0.75 v 7.787 l 1.99129,-1.8381 c 0.30436,-0.281 0.77886,-0.262 1.05981,0.0424 z"
     fill="#000000"
     stroke-width="1"
     stroke-opacity="0"
     class="primarycolor"
     id="path1" />
</svg>
