<?xml version="1.0" encoding="UTF-8" standalone="no"?>
<svg
   width="100"
   height="200"
   viewBox="0 0 100 200"
   version="1.1"
   id="svg1"
   xmlns="http://www.w3.org/2000/svg"
   xmlns:svg="http://www.w3.org/2000/svg">
     inkscape:current-layer="layer1" />
	 
    <path
       id="path1"
       fill="#000000"
		 stroke-width="1"
		 stroke-opacity="0"
		 class="primarycolor"
       d="m 50.000049,146.57483 a 5,5 0 0 1 -5.000212,-5.00021 V 76.57394 c -15.387139,0.58579 -38.7521563,3.40134 -38.7521563,3.40134 0,0 33.2642883,-30.02348 43.7523683,-60.81903 10.488078,30.79555 43.752368,60.81903 43.752368,60.81903 0,0 -23.365541,-2.8156 -38.752673,-3.40134 v 65.00068 a 5,5 0 0 1 -4.999695,5.00021 z" />
    <path
       fill="#000000"
		 stroke-width="1"
		 stroke-opacity="0"
		 class="primarycolor"
       d="m 49.691406,185.22694 a 5,5 0 0 1 -5,-5 v -12.86133 a 5,5 0 0 1 5,-5 5,5 0 0 1 5,5 v 12.86133 a 5,5 0 0 1 -5,5 z"
       id="path1-5" />
</svg>
