<?xml version="1.0" encoding="UTF-8" standalone="no"?>
<svg
   width="100"
   height="200"
   viewBox="0 0 100 200"
   version="1.1"
   id="svg1"
   xmlns="http://www.w3.org/2000/svg"
   xmlns:svg="http://www.w3.org/2000/svg">
 

    <path
       id="path1"
      fill="#000000"
		 stroke-width="1"
		 stroke-opacity="0"
		 class="primarycolor"
       d="M 50.000049 57.808358 A 5 5 0 0 0 44.999837 62.808569 L 44.999837 127.80925 C 29.612698 127.22346 6.2476807 124.40791 6.2476807 124.40791 C 6.2476807 124.40791 39.511969 154.43139 50.000049 185.22694 C 60.488127 154.43139 93.752417 124.40791 93.752417 124.40791 C 93.752417 124.40791 70.386876 127.22351 54.999744 127.80925 L 54.999744 62.808569 A 5 5 0 0 0 50.000049 57.808358 z " />
    <path
       fill="#000000"
		 stroke-width="1"
		 stroke-opacity="0"
		 class="primarycolor"
       d="m 49.691406,19.15625 a 5,5 0 0 0 -5,5 v 12.861328 a 5,5 0 0 0 5,5 5,5 0 0 0 5,-5 V 24.15625 a 5,5 0 0 0 -5,-5 z"
       id="path1-5" />
 
</svg>
