<?xml version="1.0" encoding="UTF-8" standalone="no"?>
<svg
   width="48"
   height="48"
   viewBox="0 0 48 48"
   fill="none"
   version="1.1"
   id="svg1"
   sodipodi:docname="factory_upperleft.svg"
   inkscape:version="1.3 (0e150ed6c4, 2023-07-21)"
   xmlns:inkscape="http://www.inkscape.org/namespaces/inkscape"
   xmlns:sodipodi="http://sodipodi.sourceforge.net/DTD/sodipodi-0.dtd"
   xmlns="http://www.w3.org/2000/svg"
   xmlns:svg="http://www.w3.org/2000/svg">
  <defs
     id="defs1" />
  <sodipodi:namedview
     id="namedview1"
     pagecolor="#ffffff"
     bordercolor="#000000"
     borderopacity="0.25"
     inkscape:showpageshadow="2"
     inkscape:pageopacity="0.0"
     inkscape:pagecheckerboard="0"
     inkscape:deskcolor="#d1d1d1"
     inkscape:zoom="36.895833"
     inkscape:cx="24"
     inkscape:cy="24"
     inkscape:window-width="3840"
     inkscape:window-height="2054"
     inkscape:window-x="2869"
     inkscape:window-y="-11"
     inkscape:window-maximized="1"
     inkscape:current-layer="svg1" />
  <path
     d="M 4.6686257,6.0244329 C 4.7701906,4.1074157 6.3541995,2.6051105 8.2739016,2.6051105 h 2.8113434 c 1.919761,0 3.50372,1.5023052 3.605319,3.4193224 l 1.428925,26.9713351 c 0.109415,2.066043 -1.536301,3.801296 -3.605318,3.801296 H 6.8449584 c -2.0689743,0 -3.7147327,-1.735253 -3.605276,-3.801296 z M 16.407042,36.797064 c 0.94047,-1.013951 1.488391,-2.393437 1.409048,-3.891257 l -0.908953,-17.15561 7.73715,-7.7371517 c 0.303693,-0.3036751 0.760378,-0.3945284 1.157175,-0.2301692 0.396796,0.1643341 0.655551,0.5515318 0.655551,0.9810333 v 8.4797746 l 9.230638,-9.2306387 c 0.304797,-0.3047539 0.763521,-0.3950631 1.161082,-0.2285631 0.397561,0.1664655 0.654957,0.5568064 0.651644,0.9877519 L 37.314508,32.372328 c -0.01928,2.449333 -2.010317,4.424736 -4.45965,4.424736 z m 15.35928,-2.123724 v -8.282524 c 0,-0.821031 -0.665575,-1.486606 -1.486607,-1.486606 h -6.795916 c -0.821031,0 -1.486606,0.665575 -1.486606,1.486606 v 8.282524 z"
     fill="#000000"
     stroke-width="0.84949"
     stroke-opacity="0"
     class="primarycolor"
     id="path1" />
</svg>
