<?xml version="1.0" encoding="UTF-8" standalone="no"?>
<svg
   width="48"
   height="48"
   viewBox="0 0 48 48"
   fill="none"
   version="1.1"
   id="svg1"
   sodipodi:docname="factory_people.svg"
   inkscape:version="1.3 (0e150ed6c4, 2023-07-21)"
   xmlns:inkscape="http://www.inkscape.org/namespaces/inkscape"
   xmlns:sodipodi="http://sodipodi.sourceforge.net/DTD/sodipodi-0.dtd"
   xmlns="http://www.w3.org/2000/svg"
   xmlns:svg="http://www.w3.org/2000/svg">
  <defs
     id="defs1" />
  <sodipodi:namedview
     id="namedview1"
     pagecolor="#ffffff"
     bordercolor="#000000"
     borderopacity="0.25"
     inkscape:showpageshadow="2"
     inkscape:pageopacity="0.0"
     inkscape:pagecheckerboard="0"
     inkscape:deskcolor="#d1d1d1"
     inkscape:zoom="6.5223234"
     inkscape:cx="-27.980826"
     inkscape:cy="20.468166"
     inkscape:window-width="3840"
     inkscape:window-height="2054"
     inkscape:window-x="2869"
     inkscape:window-y="-11"
     inkscape:window-maximized="1"
     inkscape:current-layer="svg1" />
  <path
     id="path1"
     d="M 8.2734375 2.6054688 C 6.3537373 2.6054687 4.7695335 4.1083753 4.6679688 6.0253906 L 3.2402344 32.996094 C 3.1307778 35.062135 4.7767309 36.796875 6.8457031 36.796875 L 12.513672 36.796875 C 14.582687 36.796875 16.228556 35.062135 16.119141 32.996094 L 14.691406 6.0253906 C 14.589807 4.1083753 13.005697 2.6054688 11.085938 2.6054688 L 8.2734375 2.6054688 z M 25.496094 7.7070312 C 25.186017 7.6774795 24.872301 7.7859158 24.644531 8.0136719 L 16.90625 15.75 L 17.816406 32.90625 C 17.895749 34.404069 17.346719 35.782925 16.40625 36.796875 L 19.152344 36.796875 C 19.617377 36.025564 20.321114 35.400568 21.191406 35.091797 C 21.424545 34.930229 20.479192 34.597875 20.316406 34.287109 C 18.103996 32.343378 17.937995 28.612918 19.966797 26.478516 C 21.388346 24.807548 23.817561 24.253955 25.861328 24.904297 L 28.292969 24.904297 C 29.397248 23.180209 31.378616 22.035119 33.441406 22.027344 C 34.872389 21.988799 36.273112 22.490312 37.384766 23.359375 L 37.5 8.7714844 C 37.503313 8.3405393 37.24717 7.9516216 36.849609 7.7851562 C 36.452049 7.6186564 35.992297 7.7089183 35.6875 8.0136719 L 26.457031 17.244141 L 26.457031 8.7636719 C 26.457031 8.3341708 26.197577 7.9475371 25.800781 7.7832031 C 25.701582 7.7421134 25.599453 7.7168818 25.496094 7.7070312 z "
     fill="#000000"
     stroke-width="1"
     stroke-opacity="0"
     class="primarycolor" />
  <path
     d="m 29.678882,28.18295 c 0,-2.33472 1.892633,-4.227386 4.227386,-4.227386 2.334753,0 4.227386,1.892666 4.227386,4.227386 0,2.334752 -1.892633,4.227385 -4.227386,4.227385 -2.334753,0 -4.227386,-1.892633 -4.227386,-4.227385 z m -5.202936,-1.625918 c -1.975535,0 -3.577018,1.601464 -3.577018,3.577019 0,1.975555 1.601483,3.577018 3.577018,3.577018 1.975555,0 3.577019,-1.601463 3.577019,-3.577018 0,-1.975555 -1.601464,-3.577019 -3.577019,-3.577019 z m 18.860644,0 c -1.975555,0 -3.577019,1.601464 -3.577019,3.577019 0,1.975555 1.601464,3.577018 3.577019,3.577018 1.975555,0 3.577018,-1.601463 3.577018,-3.577018 0,-1.975555 -1.601463,-3.577019 -3.577018,-3.577019 z m -13.169932,7.804404 c -1.167344,0 -2.113693,0.946349 -2.113693,2.113693 v 5.040345 c 0,3.232714 2.620589,5.853303 5.853303,5.853303 3.232714,0 5.853303,-2.620589 5.853303,-5.853303 v -5.040345 c 0,-1.167344 -0.946349,-2.113693 -2.113693,-2.113693 z m -3.315376,1.293775 c -0.06471,0.262619 -0.09905,0.537204 -0.09905,0.819853 v 5.040344 c 0,2.247864 1.03675,4.253661 2.65818,5.565126 -0.09853,0.03206 -0.198492,0.06165 -0.299689,0.08884 -3.122542,0.836632 -6.332143,-1.016393 -7.168827,-4.138936 l -0.967883,-3.612203 c -0.302134,-1.127541 0.367029,-2.28656 1.494609,-2.588721 z M 38.40206,47.080664 c 1.62143,-1.31153 2.658245,-3.317327 2.658245,-5.565256 v -5.040344 c 0,-0.282584 -0.03434,-0.557169 -0.09905,-0.819788 l 4.382303,1.174238 c 1.127607,0.302161 1.796769,1.46118 1.494609,2.588721 l -0.967876,3.612203 c -0.836698,3.122543 -4.046259,4.975568 -7.168801,4.138936 -0.101197,-0.02712 -0.201028,-0.05671 -0.29943,-0.08871 z"
     fill="#000000"
     stroke-width="0.650367"
     stroke-opacity="0"
     class="primarycolor"
     id="path1-7"
     style="fill:#8758b3;fill-opacity:1" />
</svg>
