<?xml version="1.0" encoding="UTF-8" standalone="no"?>
<svg
   width="48"
   height="48"
   viewBox="0 0 48 48"
   fill="none"
   version="1.1"
   id="svg1"
   sodipodi:docname="factory_special.svg"
   inkscape:version="1.3 (0e150ed6c4, 2023-07-21)"
   xmlns:inkscape="http://www.inkscape.org/namespaces/inkscape"
   xmlns:sodipodi="http://sodipodi.sourceforge.net/DTD/sodipodi-0.dtd"
   xmlns="http://www.w3.org/2000/svg"
   xmlns:svg="http://www.w3.org/2000/svg">
  <defs
     id="defs1" />
  <sodipodi:namedview
     id="namedview1"
     pagecolor="#ffffff"
     bordercolor="#000000"
     borderopacity="0.25"
     inkscape:showpageshadow="2"
     inkscape:pageopacity="0.0"
     inkscape:pagecheckerboard="0"
     inkscape:deskcolor="#d1d1d1"
     inkscape:zoom="18.447917"
     inkscape:cx="-0.13551666"
     inkscape:cy="29.352908"
     inkscape:window-width="3840"
     inkscape:window-height="2054"
     inkscape:window-x="2869"
     inkscape:window-y="-11"
     inkscape:window-maximized="1"
     inkscape:current-layer="svg1" />
  <path
     id="path1"
     d="M 8.2734375 2.6054688 C 6.3537373 2.6054687 4.7695335 4.1083753 4.6679688 6.0253906 L 3.2402344 32.996094 C 3.1307778 35.062135 4.7767309 36.796875 6.8457031 36.796875 L 12.513672 36.796875 C 14.582687 36.796875 16.228556 35.062135 16.119141 32.996094 L 14.691406 6.0253906 C 14.589807 4.1083753 13.005697 2.6054688 11.085938 2.6054688 L 8.2734375 2.6054688 z M 25.496094 7.7070312 C 25.186017 7.6774795 24.872301 7.7859158 24.644531 8.0136719 L 16.90625 15.75 L 17.816406 32.90625 C 17.895749 34.404069 17.346719 35.782925 16.40625 36.796875 L 24.160156 36.796875 C 24.655385 36.090414 25.148967 35.383771 25.638672 34.673828 L 21.998047 34.673828 L 21.998047 26.390625 C 21.998047 25.569595 22.663345 24.904297 23.484375 24.904297 L 28.263672 24.904297 C 28.260887 24.252138 28.259802 23.60066 28.267578 22.949219 C 27.354808 22.679731 26.597332 21.938626 26.296875 21.037109 C 25.576355 19.216949 27.043989 17.009471 28.998047 16.962891 C 31.809499 16.943802 34.62312 16.952909 37.435547 16.953125 L 37.5 8.7714844 C 37.503313 8.3405393 37.24717 7.9516216 36.849609 7.7851562 C 36.452049 7.6186564 35.992297 7.7089183 35.6875 8.0136719 L 26.457031 17.244141 L 26.457031 8.7636719 C 26.457031 8.3341708 26.197577 7.9475371 25.800781 7.7832031 C 25.701582 7.7421134 25.599453 7.7168818 25.496094 7.7070312 z "
    fill="#000000"
     stroke-width="1"
     stroke-opacity="0"
     class="primarycolor" />
  <path
     id="path1-9"
     d="m 29.23141,18.874647 c -0.5926,0 -1.07297,0.480392 -1.07297,1.072971 0,0.592579 0.48037,1.07297 1.07297,1.07297 h 1.072971 v 9.053189 c 0,0.872968 -0.265816,1.725706 -0.762816,2.443523 l -6.127667,8.849911 c -1.581461,2.284351 0.05289,5.40467 2.831217,5.40467 h 16.7002 c 2.778346,0 4.414762,-3.120319 2.833312,-5.40467 L 39.65096,32.5173 c -0.496892,-0.717817 -0.762815,-1.570555 -0.762815,-2.443523 v -9.053189 h 1.07297 c 0.592601,0 1.072971,-0.480391 1.072971,-1.07297 0,-0.592579 -0.48037,-1.072971 -1.072971,-1.072971 z"
     style="fill:#009ca6;fill-opacity:1;stroke-width:1.07297"
     sodipodi:nodetypes="ssscsccssccscssss" />
</svg>
