<?xml version="1.0" encoding="UTF-8" standalone="no"?>
<svg
   width="48"
   height="48"
   viewBox="0 0 48 48"
   fill="none"
   version="1.1"
   id="svg1"
   sodipodi:docname="factory_money.svg"
   inkscape:version="1.3 (0e150ed6c4, 2023-07-21)"
   xmlns:inkscape="http://www.inkscape.org/namespaces/inkscape"
   xmlns:sodipodi="http://sodipodi.sourceforge.net/DTD/sodipodi-0.dtd"
   xmlns="http://www.w3.org/2000/svg"
   xmlns:svg="http://www.w3.org/2000/svg">
  <defs
     id="defs1" />
  <sodipodi:namedview
     id="namedview1"
     pagecolor="#ffffff"
     bordercolor="#000000"
     borderopacity="0.25"
     inkscape:showpageshadow="2"
     inkscape:pageopacity="0.0"
     inkscape:pagecheckerboard="0"
     inkscape:deskcolor="#d1d1d1"
     inkscape:zoom="13.044647"
     inkscape:cx="-5.5578354"
     inkscape:cy="27.022579"
     inkscape:window-width="3840"
     inkscape:window-height="2054"
     inkscape:window-x="2869"
     inkscape:window-y="-11"
     inkscape:window-maximized="1"
     inkscape:current-layer="svg1" />
  <path
     id="path1"
    
     d="m 8.2734375,2.6054688 c -1.9197002,-1e-7 -3.503904,1.5029065 -3.6054687,3.4199218 L 3.2402344,32.996094 c -0.1094566,2.066041 1.5364965,3.800781 3.6054687,3.800781 h 5.6679689 c 2.069015,0 3.714884,-1.73474 3.605469,-3.800781 L 14.691406,6.0253906 C 14.589807,4.1083753 13.005697,2.6054688 11.085938,2.6054688 Z M 25.496094,7.7070312 c -0.310077,-0.029552 -0.623793,0.078885 -0.851563,0.3066407 L 16.90625,15.75 17.816406,32.90625 c 0.07934,1.497819 -0.469687,2.876675 -1.410156,3.890625 h 2.226562 c -7.56e-4,-2.35814 0.08594,-4.711973 0.07098,-7.069428 0.0058,-2.415632 1.684107,-4.526974 4.007142,-4.600494 4.958643,-0.09915 9.807839,-0.0088 14.660156,-0.0098 L 37.5,8.7714844 C 37.503313,8.3405393 37.24717,7.9516216 36.849609,7.7851562 36.452049,7.6186564 35.992297,7.7089183 35.6875,8.0136719 L 26.457031,17.244141 V 8.7636719 c 0,-0.4295011 -0.259454,-0.8161348 -0.65625,-0.9804688 -0.0992,-0.04109 -0.201328,-0.066321 -0.304687,-0.076172 z"
     fill="#000000"
     stroke-width="1"
     stroke-opacity="0"
     class="primarycolor"
     sodipodi:nodetypes="sccssccsssccccccccccccscs" />
  <path
     d="m 20.827217,29.762197 c 0,-1.27386 1.032662,-2.306522 2.306522,-2.306522 h 17.793167 c 1.27386,0 2.306522,1.032662 2.306522,2.306522 v 11.203105 c 0,1.27386 -1.032662,2.306522 -2.306522,2.306522 H 23.133739 c -1.27386,0 -2.306522,-1.032662 -2.306522,-2.306522 z m 3.954037,-0.659007 v 1.318013 c 0,0.545933 -0.442576,0.988509 -0.988509,0.988509 h -1.318013 v 1.977019 h 1.318013 c 1.637814,0 2.965528,-1.327714 2.965528,-2.965528 V 29.10319 Z m 7.249068,9.55559 c 1.637763,0 2.965528,-1.327765 2.965528,-2.965528 0,-1.637762 -1.327765,-2.965527 -2.965528,-2.965527 -1.637814,0 -2.965528,1.327765 -2.965528,2.965527 0,1.637763 1.327714,2.965528 2.965528,2.965528 z m -9.55559,0.659007 h 1.318013 c 0.545933,0 0.988509,0.442588 0.988509,0.988509 v 1.318012 h 1.977019 v -1.318012 c 0,-1.637763 -1.327714,-2.965528 -2.965528,-2.965528 h -1.318013 z m 16.804659,0.988509 c 0,-0.545921 0.442588,-0.988509 0.988509,-0.988509 h 1.318012 V 37.340768 H 40.2679 c -1.637763,0 -2.965528,1.327765 -2.965528,2.965528 v 1.318012 h 1.977019 z m 0,-9.885093 V 29.10319 h -1.977019 v 1.318013 c 0,1.637814 1.327765,2.965528 2.965528,2.965528 h 1.318012 V 31.409712 H 40.2679 c -0.545921,0 -0.988509,-0.442576 -0.988509,-0.988509 z m -15.287166,14.82764 c 0.683667,1.181862 1.961506,1.977018 3.425054,1.977018 h 13.509627 c 3.457674,0 6.260559,-2.802885 6.260559,-6.260559 v -6.919565 c 0,-1.463548 -0.795156,-2.741387 -1.977018,-3.425054 v 10.344619 c 0,2.365701 -1.91784,4.283541 -4.283541,4.283541 z"
     fill="#212121"
     id="path1-2"
     style="stroke-width:1.31802;fill:#57ae00;fill-opacity:1" />
</svg>
