<?xml version="1.0" encoding="UTF-8" standalone="no"?>
<svg
   width="48"
   height="48"
   viewBox="0 0 48 48"
   fill="none"
   version="1.1"
   id="svg1"
   sodipodi:docname="factory_upgrade.svg"
   inkscape:version="1.3 (0e150ed6c4, 2023-07-21)"
   xmlns:inkscape="http://www.inkscape.org/namespaces/inkscape"
   xmlns:sodipodi="http://sodipodi.sourceforge.net/DTD/sodipodi-0.dtd"
   xmlns="http://www.w3.org/2000/svg"
   xmlns:svg="http://www.w3.org/2000/svg">
  <defs
     id="defs1" />
  <sodipodi:namedview
     id="namedview1"
     pagecolor="#ffffff"
     bordercolor="#000000"
     borderopacity="0.25"
     inkscape:showpageshadow="2"
     inkscape:pageopacity="0.0"
     inkscape:pagecheckerboard="0"
     inkscape:deskcolor="#d1d1d1"
     inkscape:zoom="8"
     inkscape:cx="-25.4375"
     inkscape:cy="56.8125"
     inkscape:window-width="3840"
     inkscape:window-height="2054"
     inkscape:window-x="2869"
     inkscape:window-y="-11"
     inkscape:window-maximized="1"
     inkscape:current-layer="svg1" />
  <path
     id="rect3"
     style="display:inline;fill:#2f9320;fill-opacity:1;stroke-width:1.55961"
     d="M 38.681966,17.959215 29.766948,32.98069 h 4.214611 V 45.991968 H 43.4987 V 32.98069 h 4.098283 z" />
  <path
     id="path1"
     d="m 8.2734375,2.6054688 c -1.9197002,-1e-7 -3.503904,1.5029065 -3.6054687,3.4199218 L 3.2402344,32.996094 c -0.1094566,2.066041 1.5364965,3.800781 3.6054687,3.800781 h 5.6679689 c 2.069015,0 3.714884,-1.73474 3.605469,-3.800781 L 14.691406,6.0253906 C 14.589807,4.1083753 13.005697,2.6054688 11.085938,2.6054688 Z M 25.496094,7.7070312 c -0.310077,-0.029552 -0.623793,0.078885 -0.851563,0.3066407 L 16.90625,15.75 17.816406,32.90625 c 0.07934,1.497819 -0.469687,2.876675 -1.410156,3.890625 h 9.398438 5.769531 v -1.539063 l -5.654297,-0.544921 -3.921875,-0.03906 v -8.283203 c 0,-0.82103 0.665298,-1.486328 1.486328,-1.486328 h 6.794922 c 0.421923,0 0.869745,0.256389 1.140625,0.539062 2.022594,-3.407639 4.045907,-6.814932 6.068359,-10.222656 v -0.01367 l 0.05469,-6.5332029 C 37.546282,8.2428831 37.24717,7.9516216 36.849609,7.7851562 36.452049,7.6186564 35.992297,7.7089183 35.6875,8.0136719 L 26.457031,17.244141 V 8.7636719 c 0,-0.4295011 -0.259454,-0.8161348 -0.65625,-0.9804688 -0.0992,-0.04109 -0.201328,-0.066321 -0.304687,-0.076172 z"
     fill="#000000"
     stroke-width="1"
     stroke-opacity="0"
     class="primarycolor"
     sodipodi:nodetypes="sccssccssscccccccccssscccccccscs" />
</svg>
