<?xml version="1.0" encoding="UTF-8" standalone="no"?>
<!-- Created with Inkscape (http://www.inkscape.org/) -->

<svg
   width="100mm"
   height="100mm"
   viewBox="0 0 100 100"
   version="1.1"
   id="svg1"
   xml:space="preserve"
   inkscape:version="1.3 (0e150ed6c4, 2023-07-21)"
   sodipodi:docname="fort.svg"
   xmlns:inkscape="http://www.inkscape.org/namespaces/inkscape"
   xmlns:sodipodi="http://sodipodi.sourceforge.net/DTD/sodipodi-0.dtd"
   xmlns="http://www.w3.org/2000/svg"
   xmlns:svg="http://www.w3.org/2000/svg"><sodipodi:namedview
     id="namedview1"
     pagecolor="#ffffff"
     bordercolor="#000000"
     borderopacity="0.25"
     inkscape:showpageshadow="2"
     inkscape:pageopacity="0.0"
     inkscape:pagecheckerboard="0"
     inkscape:deskcolor="#d1d1d1"
     inkscape:document-units="mm"
     inkscape:zoom="2.2312056"
     inkscape:cx="296.47649"
     inkscape:cy="161.12365"
     inkscape:window-width="3840"
     inkscape:window-height="2054"
     inkscape:window-x="2869"
     inkscape:window-y="-11"
     inkscape:window-maximized="1"
     inkscape:current-layer="layer1" /><defs
     id="defs1" /><g
     inkscape:label="Layer 1"
     inkscape:groupmode="layer"
     id="layer1"><path
       id="path1"
       fill="#000000"
     stroke-width="1"
     stroke-opacity="0"
     class="primarycolor"
       d="m 66.379576,52.993334 a 8.893734,8.893734 0 0 0 -8.89403,8.893514 8.893734,8.893734 0 0 0 0.08992,1.255737 8.893734,8.893734 0 0 0 -2.257744,-0.293522 8.893734,8.893734 0 0 0 -8.89403,8.893514 8.893734,8.893734 0 0 0 0.188102,1.715657 8.893734,8.893734 0 0 0 -1.751831,-0.174149 8.893734,8.893734 0 0 0 -8.894031,8.893514 8.893734,8.893734 0 0 0 8.894031,8.893514 8.893734,8.893734 0 0 0 8.893514,-8.893514 8.893734,8.893734 0 0 0 -0.170016,-1.733228 8.893734,8.893734 0 0 0 1.734261,0.192237 8.893734,8.893734 0 0 0 2.391586,-0.33538 8.893734,8.893734 0 0 0 -0.223243,1.876371 8.893734,8.893734 0 0 0 8.893514,8.894031 8.893734,8.893734 0 0 0 8.893514,-8.894031 8.893734,8.893734 0 0 0 -0.155546,-1.648995 8.893734,8.893734 0 0 0 1.344621,0.108004 8.893734,8.893734 0 0 0 2.106848,-0.273886 8.893734,8.893734 0 0 0 -0.209806,1.814877 8.893734,8.893734 0 0 0 8.893514,8.894031 8.893734,8.893734 0 0 0 8.893514,-8.894031 8.893734,8.893734 0 0 0 -8.893514,-8.893514 8.893734,8.893734 0 0 0 -2.106331,0.273368 8.893734,8.893734 0 0 0 0.209806,-1.814876 8.893734,8.893734 0 0 0 -8.894031,-8.893514 8.893734,8.893734 0 0 0 -1.264005,0.09043 8.893734,8.893734 0 0 0 0.07493,-1.052649 8.893734,8.893734 0 0 0 -8.893514,-8.893514 z m -2.25981,17.481103 a 8.893734,8.893734 0 0 0 2.25981,0.306441 8.893734,8.893734 0 0 0 1.264006,-0.09043 8.893734,8.893734 0 0 0 -0.07493,1.052132 8.893734,8.893734 0 0 0 0.173633,1.647444 8.893734,8.893734 0 0 0 -1.362708,-0.105936 8.893734,8.893734 0 0 0 -2.391585,0.33538 8.893734,8.893734 0 0 0 0.223242,-1.876888 8.893734,8.893734 0 0 0 -0.09147,-1.26814 z" /><path
       id="path2"
       fill="#000000"
     stroke-width="1"
     stroke-opacity="0"
     class="primarycolor"
       d="M 36.175053 16.101343 C 19.650842 16.101321 6.2551783 29.496753 6.2549154 46.020964 C 6.2805922 49.509908 6.9163195 52.967497 8.1333537 56.237394 L 8.0077799 66.703422 L 14.651819 66.703422 C 19.817798 72.103814 26.800942 75.349999 34.209798 75.862036 C 35.784363 72.142946 39.804663 69.688255 43.829366 69.931649 C 43.768191 68.625303 43.975449 67.296139 44.420544 66.0585 C 42.483776 66.868037 40.432987 67.409424 38.319625 67.631014 L 38.319625 51.389628 C 38.661527 51.268856 38.992869 51.120038 39.310262 50.944694 L 49.059538 60.69397 C 50.830881 59.735628 52.87619 59.291686 54.89019 59.572591 C 54.858803 58.330093 55.128511 57.080323 55.582137 55.924752 C 56.922462 52.344674 60.506397 49.827821 64.304085 49.638831 C 64.823773 49.610392 65.345092 49.63676 65.862646 49.696191 C 66.010393 48.490881 66.095192 47.266202 66.09519 46.020964 C 66.092556 44.423057 65.959938 42.832666 65.704517 41.263631 L 65.782031 41.322026 L 71.385307 33.875968 L 94.12242 33.875968 L 94.12242 24.065198 L 63.35944 24.065198 L 63.295361 24.017139 L 63.259188 24.065198 L 56.423946 24.065198 C 50.912981 18.963434 43.684937 16.120658 36.175053 16.101343 z M 38.319625 24.553023 C 42.308774 24.973703 46.103288 26.49183 49.281746 28.938802 L 38.968164 39.252384 C 38.756876 39.152043 38.540389 39.063031 38.319625 38.985734 L 38.319625 24.553023 z M 33.959684 24.610901 L 33.959684 39.001237 C 33.855204 39.037207 33.751646 39.075807 33.649109 39.116992 L 23.239408 28.707292 C 26.380481 26.404562 30.083413 24.989613 33.959684 24.610901 z M 19.98586 31.619775 L 30.390393 42.024825 C 30.196031 42.37453 30.033957 42.74123 29.906185 43.120365 L 14.611511 43.120365 C 15.21659 38.836848 17.088138 34.831914 19.98586 31.619775 z M 52.453646 31.932935 C 55.188543 35.095085 56.951801 38.979961 57.531372 43.120365 L 42.384493 43.120365 C 42.294253 42.848522 42.186364 42.582855 42.061515 42.325065 L 52.453646 31.932935 z M 14.470435 47.522681 L 30.000236 47.522681 C 30.060476 47.690875 30.127538 47.856551 30.201257 48.019291 L 18.897038 59.323511 C 16.286528 55.914462 14.746 51.807586 14.470435 47.522681 z M 42.279073 47.522681 L 57.628007 47.522681 C 57.357416 51.64617 55.91509 55.606701 53.470638 58.938521 L 42.218095 47.685978 C 42.239145 47.631818 42.259463 47.57738 42.279073 47.522681 z M 33.274972 51.111609 C 33.497821 51.217031 33.72642 51.30985 33.959684 51.389628 L 33.959684 67.646517 C 29.496064 67.227538 25.271743 65.436355 21.867399 62.519181 L 33.274972 51.111609 z " /></g></svg>
