<?xml version="1.0" encoding="UTF-8" standalone="no"?>
<!-- Created with Inkscape (http://www.inkscape.org/) -->

<svg
   width="100mm"
   height="100mm"
   viewBox="0 0 100 100"
   version="1.1"
   id="svg1"
   xml:space="preserve"
   inkscape:version="1.3 (0e150ed6c4, 2023-07-21)"
   sodipodi:docname="fort_upgrade.svg"
   xmlns:inkscape="http://www.inkscape.org/namespaces/inkscape"
   xmlns:sodipodi="http://sodipodi.sourceforge.net/DTD/sodipodi-0.dtd"
   xmlns="http://www.w3.org/2000/svg"
   xmlns:svg="http://www.w3.org/2000/svg"><sodipodi:namedview
     id="namedview1"
     pagecolor="#ffffff"
     bordercolor="#000000"
     borderopacity="0.25"
     inkscape:showpageshadow="2"
     inkscape:pageopacity="0.0"
     inkscape:pagecheckerboard="0"
     inkscape:deskcolor="#d1d1d1"
     inkscape:document-units="mm"
     inkscape:zoom="1.5777006"
     inkscape:cx="151.16936"
     inkscape:cy="262.72412"
     inkscape:window-width="3840"
     inkscape:window-height="2054"
     inkscape:window-x="2869"
     inkscape:window-y="-11"
     inkscape:window-maximized="1"
     inkscape:current-layer="layer1" /><defs
     id="defs1" /><g
     inkscape:label="Layer 1"
     inkscape:groupmode="layer"
     id="layer1"><path
       id="path1"
      fill="#000000"
     stroke-width="1"
     stroke-opacity="0"
     class="primarycolor"
       d="m 57.257487,44.073279 c -4.147318,-1.74e-4 -7.509508,3.361784 -7.509619,7.509102 2.37e-4,0.354818 0.02562,0.709173 0.07596,1.060401 -0.622196,-0.164015 -1.262893,-0.247381 -1.906343,-0.248047 -4.147319,-1.75e-4 -7.509509,3.361783 -7.50962,7.509102 0.0059,0.487021 0.05924,0.972309 0.159164,1.449007 -0.487079,-0.09791 -0.982673,-0.147249 -1.479496,-0.147278 -4.147319,-1.75e-4 -7.509509,3.361784 -7.50962,7.509103 1.11e-4,4.147319 3.362301,7.509277 7.50962,7.509102 4.147116,-1.11e-4 7.508991,-3.361986 7.509102,-7.509102 2.78e-4,-0.491334 -0.04767,-0.981509 -0.143144,-1.463477 0.481501,0.101934 0.971858,0.156283 1.463994,0.162264 0.682917,-0.0021 1.362352,-0.0974 2.019515,-0.283187 -0.118963,0.519936 -0.182193,1.051067 -0.188619,1.5844 0.0045,1.658873 0.558178,3.269566 1.57458,4.580599 4.451993,-7.500105 8.903036,-15.000674 13.354741,-22.500952 -0.401334,-3.802864 -3.596314,-6.696791 -7.420219,-6.721037 z m -1.907894,14.759822 c 0.622221,0.16781 1.263455,0.254825 1.907894,0.258899 0.357072,-9e-5 0.713683,-0.02565 1.067118,-0.07648 -0.03857,0.294598 -0.05962,0.591226 -0.06304,0.888318 0.0055,0.467266 0.05466,0.932997 0.146761,1.39113 -0.380749,-0.05928 -0.765497,-0.08917 -1.150834,-0.0894 -0.682917,0.0021 -1.362352,0.0974 -2.019515,0.283187 0.118999,-0.520104 0.18223,-1.05141 0.188619,-1.584916 -8.9e-5,-0.358292 -0.02582,-0.716118 -0.077,-1.070736 z"
        /><path
       id="path2"
       fill="#000000"
     stroke-width="1"
     stroke-opacity="0"
     class="primarycolor"
       d="M 31.754742,12.924099 C 17.80275,12.924081 6.4923039,24.234331 6.4920819,38.186324 c 0.02168,2.945842 0.558447,5.86521 1.586034,8.626103 l -0.106027,8.836848 h 5.6098041 c 4.361824,4.559748 10.257946,7.30062 16.513513,7.732951 1.329463,-3.140163 4.723948,-5.212748 8.122151,-5.007241 -0.05165,-1.102996 0.123344,-2.225257 0.499153,-3.270241 -1.635283,0.683522 -3.366839,1.140635 -5.151227,1.327731 V 42.719282 c 0.28868,-0.101972 0.568444,-0.227625 0.83643,-0.375674 l 8.231669,8.231668 c 1.495609,-0.809163 3.222538,-1.183999 4.923031,-0.946821 -0.0265,-1.049086 0.201224,-2.104312 0.584236,-3.080003 1.131686,-3.02279 4.157732,-5.147861 7.364258,-5.307432 0.438792,-0.02401 0.878961,-0.0017 1.31595,0.04843 0.124748,-1.017687 0.196347,-2.051728 0.196346,-3.103127 -0.0022,-1.349171 -0.114199,-2.691996 -0.32986,-4.01679 l 0.06545,0.0493 4.73105,-6.286977 h 19.197769 v -8.28359 H 54.707509 l -0.0541,-0.04058 -0.03054,0.04058 h -5.77125 C 44.198511,15.340667 38.095611,12.940408 31.754742,12.924099 Z m 1.810741,7.136061 c 3.368183,0.355195 6.572029,1.637005 9.255717,3.703073 l -8.708132,8.708132 c -0.178398,-0.08472 -0.361186,-0.159877 -0.547585,-0.225142 z m -3.681257,0.04887 v 12.150283 c -0.08822,0.03037 -0.175654,0.06296 -0.26223,0.09774 l -8.789289,-8.789289 c 2.652122,-1.944278 5.778642,-3.138971 9.051519,-3.458731 z m -11.798608,5.917847 8.784926,8.785362 c -0.164107,0.295269 -0.300952,0.604887 -0.408835,0.925004 h -12.91385 c 0.510891,-3.616729 2.091107,-6.99824 4.537759,-9.710366 z m 27.413733,0.264412 c 2.309173,2.669919 3.797956,5.950061 4.287308,9.445954 h -12.78906 c -0.07619,-0.229527 -0.167288,-0.453839 -0.272703,-0.6715 z M 13.428744,39.454279 H 26.54112 c 0.05086,0.142012 0.107485,0.281899 0.169729,0.419306 l -9.544563,9.544564 c -2.204149,-2.878384 -3.504873,-6.345969 -3.737542,-9.96387 z m 23.479845,0 h 12.959663 c -0.22847,3.481612 -1.446278,6.825632 -3.510218,9.638809 l -9.500931,-9.500931 c 0.01777,-0.04573 0.03493,-0.09169 0.05149,-0.137878 z m -7.60249,3.030262 c 0.188159,0.08901 0.381173,0.167382 0.578127,0.234742 V 56.445566 C 26.115429,56.091807 22.548681,54.579446 19.67427,52.116369 Z" /><path
       id="rect3"
       style="display:inline;fill:#2f9320;fill-opacity:1;stroke-width:3.18701"
       d="m 77.477668,39.170335 -18.21749,30.6958 h 8.6124 v 26.588042 h 19.4479 V 69.866135 h 8.37469 z" /></g></svg>
