<?xml version="1.0" encoding="UTF-8" standalone="no"?>
<svg
   viewBox="0 0 3000 500"
   width="3000"
   height="500"
   version="1.1"
   id="svg1"
   sodipodi:docname="med_dash.svg"
   inkscape:version="1.3 (0e150ed6c4, 2023-07-21)"
   xmlns:inkscape="http://www.inkscape.org/namespaces/inkscape"
   xmlns:sodipodi="http://sodipodi.sourceforge.net/DTD/sodipodi-0.dtd"
   xmlns="http://www.w3.org/2000/svg"
   xmlns:svg="http://www.w3.org/2000/svg">
  <defs
     id="defs1" />
  <sodipodi:namedview
     id="namedview1"
     pagecolor="#ffffff"
     bordercolor="#000000"
     borderopacity="0.25"
     inkscape:showpageshadow="2"
     inkscape:pageopacity="0.0"
     inkscape:pagecheckerboard="0"
     inkscape:deskcolor="#d1d1d1"
     inkscape:zoom="0.483"
     inkscape:cx="1482.4017"
     inkscape:cy="868.53002"
     inkscape:window-width="3840"
     inkscape:window-height="2054"
     inkscape:window-x="2869"
     inkscape:window-y="-11"
     inkscape:window-maximized="1"
     inkscape:current-layer="svg1" />
  <path
     id="path1"
     style="fill:#000000;fill-opacity:1;stroke-width:37.3454;stroke-linecap:round"
     d="m 1420.2586,213.28584 c -43.9214,11.15772 -166.6918,11.26831 -242.4525,11.35159 -76.2813,0.0839 -1118.160288,4.30471 -1118.629988,4.77447 -0.46963,0.46962 -22.57688,-1.496 -22.78221,17.53679 -0.20586,19.03273 23.48655,18.24114 23.48655,18.24114 0,0 1064.195348,5.51393 1121.605848,5.63533 57.4106,0.12141 202.6841,7.62385 239.6349,21.06068 36.9504,13.43681 44.6812,18.22129 73.4363,45.2168 33.2145,-29.75506 43.9263,-34.7946 73.4365,-45.2168 29.5102,-10.42218 182.2241,-20.93945 239.6346,-21.06068 57.4109,-0.12121 1121.6059,-5.63533 1121.6059,-5.63533 0,0 23.6921,0.79177 23.4868,-18.24114 -0.206,-19.03279 -22.3126,-17.06706 -22.7822,-17.53679 -0.4697,-0.46965 -1042.3489,-4.69073 -1118.6301,-4.77447 -75.7607,-0.0839 -198.531,-0.19426 -242.4523,-11.35159 -32.2764,-9.67049 -51.7704,-16.79013 -74.2992,-44.17765 -22.6006,27.05732 -35.0146,34.19767 -74.2989,44.17765 z" />
</svg>
