<?xml version="1.0" encoding="UTF-8" standalone="no"?>
<!-- Created with Inkscape (http://www.inkscape.org/) -->

<svg
   width="100mm"
   height="100mm"
   viewBox="0 0 100 100"
   version="1.1"
   id="svg1"
   xml:space="preserve"
   inkscape:version="1.3 (0e150ed6c4, 2023-07-21)"
   sodipodi:docname="naval_base.svg"
   xmlns:inkscape="http://www.inkscape.org/namespaces/inkscape"
   xmlns:sodipodi="http://sodipodi.sourceforge.net/DTD/sodipodi-0.dtd"
   xmlns="http://www.w3.org/2000/svg"
   xmlns:svg="http://www.w3.org/2000/svg"><sodipodi:namedview
     id="namedview1"
     pagecolor="#ffffff"
     bordercolor="#000000"
     borderopacity="0.25"
     inkscape:showpageshadow="2"
     inkscape:pageopacity="0.0"
     inkscape:pagecheckerboard="0"
     inkscape:deskcolor="#d1d1d1"
     inkscape:document-units="mm"
     inkscape:zoom="1.5777006"
     inkscape:cx="353.36235"
     inkscape:cy="165.11371"
     inkscape:window-width="3840"
     inkscape:window-height="2054"
     inkscape:window-x="2869"
     inkscape:window-y="-11"
     inkscape:window-maximized="1"
     inkscape:current-layer="layer1" /><defs
     id="defs1" /><g
     inkscape:label="Layer 1"
     inkscape:groupmode="layer"
     id="layer1"><path
       id="rect1"
      fill="#000000"
     stroke-width="1"
     stroke-opacity="0"
     class="primarycolor"
       d="M 50.22019,7.5892008 C 40.952854,7.5890119 33.440147,15.101719 33.440336,24.369055 c 0.01766,7.722556 5.303936,14.435828 12.80697,16.264124 V 47.90767 H 26.681059 v 6.575567 H 46.247306 V 81.982593 C 30.19851,81.315724 25.495883,77.928204 21.507731,64.39762 L 15.763896,63.642627 C 15.669064,82.019432 26.839413,92.449689 50.974394,92.336861 75.109374,92.224034 84.657863,81.507549 84.543677,63.643144 L 78.799841,64.39762 C 74.837748,77.839795 70.167331,81.270473 54.370325,81.96864 V 54.483237 H 72.987793 V 47.90767 H 54.370325 V 40.594421 C 61.788798,38.70068 66.984572,32.02541 66.999528,24.369055 66.999717,15.101921 59.487324,7.5892969 50.22019,7.5892008 Z m -0.118855,7.2930952 c 5.173712,9e-5 9.367813,4.194191 9.367903,9.367903 -9e-5,5.173713 -4.19419,9.367814 -9.367903,9.367904 -5.173713,-9e-5 -9.367814,-4.194191 -9.367904,-9.367904 9e-5,-5.173713 4.194191,-9.367813 9.367904,-9.367903 z"
       sodipodi:nodetypes="cccccccccczccccccccccccccc" /></g></svg>
