<?xml version="1.0" encoding="UTF-8" standalone="no"?>
<!-- Created with Inkscape (http://www.inkscape.org/) -->

<svg
   width="120"
   height="120"
   viewBox="0 0 120 120"
   version="1.1"
   id="svg5"
   xml:space="preserve"
   inkscape:version="1.3 (0e150ed6c4, 2023-07-21)"
   sodipodi:docname="section_end.svg"
   xmlns:inkscape="http://www.inkscape.org/namespaces/inkscape"
   xmlns:sodipodi="http://sodipodi.sourceforge.net/DTD/sodipodi-0.dtd"
   xmlns="http://www.w3.org/2000/svg"
   xmlns:svg="http://www.w3.org/2000/svg"><sodipodi:namedview
     id="namedview7"
     pagecolor="#ffffff"
     bordercolor="#000000"
     borderopacity="0.25"
     inkscape:showpageshadow="2"
     inkscape:pageopacity="0.0"
     inkscape:pagecheckerboard="0"
     inkscape:deskcolor="#d1d1d1"
     inkscape:document-units="px"
     showgrid="false"
     inkscape:zoom="5.6568542"
     inkscape:cx="63.727999"
     inkscape:cy="60.192465"
     inkscape:window-width="3840"
     inkscape:window-height="2054"
     inkscape:window-x="2869"
     inkscape:window-y="-11"
     inkscape:window-maximized="1"
     inkscape:current-layer="layer1" /><defs
     id="defs2" /><g
     inkscape:label="Layer 1"
     inkscape:groupmode="layer"
     id="layer1"><path
       id="rect1018-63-0"
       style="fill:#32291f;fill-opacity:1;stroke-width:30.8056"
       d="M 42.697492,98.752497 C 41.052485,93.575235 42.301917,84.861674 48.756847,78.176546 39.173767,75.490247 30.06817,75.476855 17.411306,75.150213 26.179703,63.352376 35.746245,54.107007 45.474361,48.472115 32.049054,44.630954 22.446032,44.003117 7.3172116,42.587369 15.627305,30.548759 33.554621,21.064586 46.003289,16.85407 33.964758,12.763345 23.864951,12.048314 7.1757823,12.146959 c 0,0 -0.043136,-2.142922 -0.060547,-3.6894528 C 16.985287,8.3009299 44.722619,5.8793169 62.208981,11.41339 83.450387,6.2277733 115.07812,7.6118062 115.07812,7.6118062 l 0.041,3.8964818 c 0,0 -19.98113,-1.249861 -40.433705,2.903296 14.348771,3.758008 26.665315,13.221972 34.460095,22.983263 -12.12139,-0.502168 -26.998755,0.631329 -35.211928,3.9357 8.71115,3.811972 27.441638,14.672257 31.647138,24.639596 -12.827363,-2.100557 -27.479739,-0.632964 -35.222073,3.605364 6.804327,3.626201 10.991435,12.789004 11.068876,17.246457 0.256698,14.775456 -10.93981,22.675956 -21.64631,22.686436 -8.339205,0.008 -14.577914,-2.86949 -17.083721,-10.755903 z m 16.728205,5.827463 c 11.35115,0.15415 13.565107,-10.828162 7.117727,-17.691136 -2.722301,-2.89778 -6.228647,-4.646283 -11.796341,-6.448604 -6.759141,6.60249 -8.256589,12.753379 -6.444691,17.322595 1.484901,3.744605 5.025556,6.521235 11.123305,6.817145 z M 63.585884,66.056369 C 67.44507,64.154412 71.502531,62.20498 76.36096,61.198179 73.12848,59.199594 60.891498,53.008083 54.074264,51.266637 49.594588,52.95556 43.36957,57.873157 40.55753,60.941805 c 8.852593,0.100199 17.552707,2.626824 23.028354,5.114564 z M 65.71966,37.662106 c 3.868162,-1.758439 13.059038,-4.25793 17.078002,-4.943392 -10.016256,-6.318339 -16.751959,-9.99812 -27.480182,-12.656469 -6.714327,1.543369 -14.106802,5.056347 -19.431913,9.227405 14.127612,2.043983 16.767193,2.943264 29.834061,8.372456 z"
       sodipodi:nodetypes="scccccccccccccccssscscscccccccccccc" /><circle
       style="fill:#32291f;fill-opacity:1;stroke-width:46.062"
       id="path1155"
       cx="13.13569"
       cy="-21.133638"
       r="4.8232613"
       transform="scale(1,-1)" /><circle
       style="fill:#32291f;fill-opacity:1;stroke-width:46.062"
       id="path1155-5"
       cx="108.70152"
       cy="-20.741388"
       r="4.8232613"
       transform="scale(1,-1)" /></g></svg>
