<?xml version="1.0" encoding="UTF-8" standalone="no"?>
<!-- Created with Inkscape (http://www.inkscape.org/) -->

<svg
   width="512"
   height="512"
   viewBox="0 0 135.46667 135.46667"
   version="1.1"
   id="svg1"
   xml:space="preserve"
   sodipodi:docname="svglogo2.svg"
   inkscape:version="1.3 (0e150ed6c4, 2023-07-21)"
   xmlns:inkscape="http://www.inkscape.org/namespaces/inkscape"
   xmlns:sodipodi="http://sodipodi.sourceforge.net/DTD/sodipodi-0.dtd"
   xmlns="http://www.w3.org/2000/svg"
   xmlns:svg="http://www.w3.org/2000/svg"><sodipodi:namedview
     id="namedview1"
     pagecolor="#ffffff"
     bordercolor="#000000"
     borderopacity="0.25"
     inkscape:showpageshadow="2"
     inkscape:pageopacity="0.0"
     inkscape:pagecheckerboard="0"
     inkscape:deskcolor="#d1d1d1"
     inkscape:document-units="mm"
     inkscape:zoom="1.4142136"
     inkscape:cx="287.43889"
     inkscape:cy="298.7526"
     inkscape:window-width="3840"
     inkscape:window-height="2054"
     inkscape:window-x="2869"
     inkscape:window-y="-11"
     inkscape:window-maximized="1"
     inkscape:current-layer="layer1" /><defs
     id="defs1" /><g
     inkscape:label="Layer 1"
     inkscape:groupmode="layer"
     id="layer1"
     style="display:inline"
     sodipodi:insensitive="true"><circle
       style="fill:#e9d8a6;fill-opacity:1;stroke-width:1.75268;stroke-linecap:round"
       id="path52"
       cx="67.75"
       cy="67.75"
       r="67.75" /><path
       style="display:inline;fill:#d6a46a"
       d="m 67.416021,135.51718 c -7.117999,-0.18075 -14.244006,-1.24909 -20.997982,-3.68401 10.203417,-15.74534 6.1765,-18.7567 2.766293,-32.651251 C 48.3769,97.559737 38.931255,67.174388 43.674705,62.539822 85.868591,7.5246464 111.45958,62.53806 83.663831,96.743469 c -5.963002,7.338061 2.738383,23.609681 8.990188,31.278931 3.407906,2.37925 -1.159094,2.37121 -3.632412,3.40385 -6.926986,2.4181 -14.328763,3.87027 -21.605586,4.09093 z"
       id="path35"
       sodipodi:nodetypes="ccccsccc" /><path
       style="display:inline;fill:#ab7b3c"
       d="m 58.997724,134.88237 c -6.32876,-0.97295 -12.66833,-2.47796 -18.251893,-5.65396 0.7391,-3.84986 4.192098,-6.49764 5.589918,-9.96686 C 52.743172,98.861746 22.755276,32.23896 89.574753,37.340821 l 9.897764,33.44128 -14.448198,23.130821 -1.47524,19.922998 6.549546,10.91031 2.28583,2.94344 c 3.903098,4.56024 -3.431933,-3.00196 -4.366519,-4.8028 -3.182328,-4.2307 -7.033424,-8.1456 -7.492158,-13.70915 -2.180944,-5.71938 -0.551219,-11.88219 1.5035,-17.336915 1.000734,-2.684282 -5.225477,-3.130184 -1.680215,-5.757012 2.696766,0.81872 8.249634,2.371625 10.499319,-2.107673 1.181353,-3.626685 -0.967067,-1.282905 -2.833929,-1.83572 -0.786734,-2.380446 -1.331863,-5.486164 -2.948191,-6.862647 -3.264597,0.999108 1.319735,-3.043518 0.309604,-4.93806 1.499942,-4.41653 1.305648,-9.073477 0.08251,-13.591381 -0.864406,-3.485766 -0.124862,-7.130306 -3.921317,-8.816799 -1.555571,-0.754434 -0.410793,-2.888682 -3.439395,-3.809488 -0.10905,-1.361931 -5.414928,-3.069291 -5.472178,-0.463449 -1.505879,-0.671052 -5.867812,0.922704 -6.9082,2.697063 1.861164,3.161195 8.075479,1.578589 10.317317,5.038071 1.617861,1.262084 -4.730308,0.114597 -2.484662,2.46054 -1.230144,0.461198 -2.511169,-0.100529 -2.44667,1.395103 -1.963592,1.171689 8.354454,6.968528 0.973793,6.023478 -2.151583,1.928631 -7.323216,3.400487 -9.370654,0.110875 -3.049062,-3.870021 1.721853,-10.830368 -3.09368,-11.283779 -1.968751,-2.467781 -4.483492,3.760737 -6.015345,5.614306 -2.045468,3.664984 -5.012269,6.151271 -2.972979,9.835404 1.119802,1.665162 6.84116,0.655152 5.32827,5.042124 -2.667058,0.381758 -5.543458,-6.476319 -4.875897,-0.563628 0.749947,3.328387 -3.240445,1.254468 -1.774953,4.026443 1.040714,-0.763577 -0.740072,1.382051 2.953537,2.554398 1.173373,1.453002 9.909049,6.323773 3.499999,5.074919 -3.390652,-1.551636 -5.247735,-0.647922 -5.542123,0.853986 -0.300479,1.117863 -0.300981,0.737063 -1.988135,3.117719 -1.687154,2.380656 -1.465863,5.203443 0.969011,7.43607 1.847299,1.405484 4.426754,2.396737 7.865737,3.080631 3.438983,0.683893 4.63649,0.775426 6.900963,0.915672 2.264473,0.140247 1.784038,0.715189 -0.109885,2.431849 -1.893923,1.71666 -2.939001,1.94507 -4.003069,4.16913 -1.064068,2.22406 -1.498044,8.57744 -1.01158,12.49424 0.486463,3.91679 -0.18367,5.71048 3.652807,10.74093 3.836477,5.03045 4.665516,8.57164 1.628554,8.38697 -1.676091,0.0453 -3.39283,-0.16321 -5.119918,-0.42872 z"
       id="path20"
       sodipodi:nodetypes="sccccccccccccccccccccccccccccccccccczczzzzzzzs" /><path
       style="display:inline;fill:#956234"
       d="m 56.046277,134.44522 c -2.97881,-0.44799 -9.582407,-2.13637 -15.282067,-4.5805 0.297897,-5.02502 6.379697,-8.4965 6.042227,-13.83353 -0.357729,-5.90975 3.750236,-8.44948 3.715426,-14.38992 L 39.50361,88.172703 52.929003,36.252648 l 35.387398,5.337894 6.97773,34.064409 -2.555613,10.610838 c -2.410556,4.219726 -15.187476,5.697944 -4.472514,0.411596 4.275803,-1.315444 5.86902,-13.474538 -0.187835,-11.15658 2.286513,-0.328535 2.525215,9.152251 0.140427,5.643798 -1.987556,-2.45293 0.646875,-5.917167 -2.751473,-7.016031 0.626232,-4.488047 2.415697,-9.382265 1.279436,-14.258745 -0.372552,-4.252531 -1.020786,-8.779577 -3.255406,-12.378452 -2.945681,-1.289935 -3.013085,-4.922274 -6.182848,-5.097503 -3.755313,-1.519815 -7.04005,0.36912 -10.369841,1.44123 -3.497117,-1.205416 -6.240535,3.754655 -1.652006,3.800843 2.121901,0.971155 11.034973,1.17856 6.945312,4.843218 -1.263679,0.599192 -2.253745,-0.370254 -1.697611,1.776253 -4.181348,1.214205 6.86447,5.803281 2.787469,6.556133 -1.741849,-3.30565 -4.809388,3.291204 -7.531365,1.632128 -1.449738,0.827631 -3.364292,-3.054277 -3.592316,-4.84666 -0.370684,-4.354616 2.52242,-7.054962 -2.269302,-8.713247 -1.443453,-0.759486 -1.127157,-0.892304 -2.903056,0.814699 -2.109651,2.777691 -3.789812,6.404844 -5.939402,9.548193 -3.087002,3.226316 0.719195,8.21364 -1.128509,11.261709 -0.348338,0.574636 -1.115208,0.96148 -1.757809,1.767373 -0.642601,0.805893 -0.120796,1.601721 0.405936,2.25728 1.508562,1.877524 5.658507,2.555874 6.950908,5.019619 5.643548,4.087062 -3.537633,0.108534 -5.662496,1.356444 -0.510564,1.418092 -6.166281,4.982775 -3.625181,10.261618 1.260719,2.666954 3.379417,3.371179 6.416173,4.409949 3.036756,1.03877 7.195173,1.459234 9.803218,1.814559 2.608045,0.355325 -1.235743,0.419961 -4.825413,1.83277 -3.58967,1.412807 -2.981189,3.941337 -3.029131,10.452217 -0.04794,6.51089 -0.01811,12.57267 0.764362,15.30352 0.782475,2.73086 1.834368,5.66468 3.084472,7.36478 1.250103,1.7001 1.822938,2.71729 -2.43644,2.07672 z"
       id="path15"
       sodipodi:nodetypes="zcccccccccccccccccccccccccszsccczzzzzzz" /><path
       id="path10"
       style="display:inline;fill:#913417"
       d="m 48.786169,75.517871 c -1.527601,0.504623 -3.659096,1.237717 -3.872631,3.102653 0.223875,1.894025 2.400331,2.62132 3.95273,3.125391 -0.163215,-0.419084 -0.01548,-1.078871 0.468263,-0.661464 0.03848,-0.3324 -0.150355,-0.939502 -0.582259,-0.743476 -0.141019,-0.488024 0.765577,-0.355982 1.113977,-0.399334 0.480673,0.02258 1.003918,0.0018 1.435917,0.239714 0.152188,0.533393 1.034591,-0.205562 1.112996,0.409964 0.141393,0.179491 0.26489,-0.589716 0.627608,-0.395575 1.030756,0.156456 1.907205,0.791922 2.904978,1.065591 0.387836,0.07579 0.955511,0.371443 1.259875,0.03597 -0.228161,-0.436129 -0.718622,-0.666437 -1.087566,-0.973179 -1.216983,-0.888459 -2.520726,-1.654149 -3.710971,-2.578872 -0.438214,-0.377668 -0.952195,-0.737561 -1.153447,-1.30428 -0.245391,-0.39838 -0.467374,0.466522 -0.825936,0.08427 -0.348883,-0.218561 -0.890218,-0.642058 -1.066855,-0.200594 -0.214165,-0.253241 -0.306401,-0.592828 -0.576679,-0.806774 z" /><path
       style="display:inline;fill:#543924"
       d="m 46.371233,132.0642 c -2.723138,-0.91206 -4.255311,-1.50903 -5.726146,-2.27317 0.570862,-2.51149 1.293892,-4.02022 2.729889,-5.82106 3.562551,-4.46768 3.750152,-10.25514 3.325839,-15.71599 -0.0017,-5.51521 0.201856,-10.160856 -5.776779,-14.38105 -5.978635,-4.220194 -6.550666,-14.802874 -6.514034,-22.574288 0.201232,-4.388246 1.74357,-10.168856 -1.74107,-11.925368 -3.484639,-1.756513 -4.096624,-7.913733 0.367107,-7.646261 -0.503586,-3.718961 -2.388165,-6.75845 -4.734417,-9.177473 -1.630842,-0.737483 1.738926,-3.526607 -1.34521,-4.796044 0.904004,-3.562781 0.270063,-6.503103 1.057214,-7.541276 1.214573,-1.443557 1.185456,-3.763975 1.670375,-3.674736 0.47967,-2.648137 -1.744168,-5.250962 -0.483771,-8.079953 1.660078,-1.248143 3.496515,-4.660142 5.360172,-5.468024 2.963445,-3.3080285 7.650327,-1.746152 11.212558,-3.4903934 1.187725,0.2091266 5.546719,-0.7119066 8.713682,-1.5285016 4.859224,0.081837 9.617569,0.05571 14.371337,0.6706749 3.483081,0.1159616 6.445896,1.7446791 9.684435,3.1856951 3.141456,1.513151 6.728887,1.945295 10.1558,1.950539 1.945752,1.736269 2.758941,0.984311 4.597442,1.649952 2.33473,-0.756638 0.77119,4.286494 2.407361,4.046277 -0.258672,1.891978 1.394014,-1.022654 1.027456,2.029823 0.156447,1.930243 4.010187,3.178616 2.927775,4.163329 0.112917,0.789376 1.937702,1.912546 2.697082,2.799577 1.77525,1.336181 1.09528,3.536716 2.6843,3.583901 1.09402,1.608203 2.69809,4.727694 3.27508,6.319962 1.98688,1.000666 2.04766,1.403322 2.95818,0.675346 -0.17637,1.159285 1.51923,1.85269 1.8103,4.170758 1.23351,2.235935 1.87885,4.337322 2.86953,7.830033 0.95083,2.245667 -0.58037,5.739815 -0.11438,7.069418 2.25942,-1.102082 -1.32886,3.954852 0.16763,2.592739 0.24425,3.448658 -2.39142,6.116306 -3.97319,7.72423 -1.27043,-0.778097 -2.04044,2.074546 -3.55355,3.011437 -2.0642,1.263571 -4.61867,2.018515 -6.49608,3.41224 -2.685797,0.999427 -0.75711,9.991187 -3.09318,4.743373 -5.184763,-1.110934 0.122668,4.166289 -0.07213,5.425048 -5.029641,-1.672366 -3.843154,-0.537122 -2.396066,1.53871 -1.027473,2.315154 -0.764278,4.385417 -4.552554,4.605447 l -0.133874,7.107477 c 0.783778,1.258802 -2.995204,3.360072 -6.142541,1.699269 -2.092731,4.171523 6.890325,4.469303 5.282072,9.057733 -2.581854,0.73117 -3.761084,9.41063 -5.846013,8.63447 -3.817736,-3.45889 -4.712165,-8.94559 -4.767349,-13.89814 0.07747,-5.289326 2.58561,-10.020142 4.067066,-14.929509 4.52797,-1.076822 8.643775,-4.297655 9.334019,-9.066926 1.851747,-1.327394 0.717581,-7.906584 -0.515526,-5.082532 -0.07989,5.249351 -0.548602,-3.215751 -4.129906,-0.841442 -3.176641,-3.796031 0.671714,-9.757175 -1.120413,-14.380091 -0.787736,-4.000747 -0.326754,-8.882375 -2.303943,-12.277908 -1.4309,-1.407934 -2.717533,-3.164476 -4.263587,-4.684526 -1.339347,-1.293355 -4.679296,-2.111089 -7.144382,-2.739952 -1.453001,1.23417 -7.210412,2.192667 -8.506837,1.359447 -3.81802,-0.108527 -7.19431,0.724719 -10.799996,0.348544 -1.093057,2.108284 -6.263559,1.870608 -2.167074,4.192143 3.656895,3.468247 1.786717,8.286343 -1.183185,11.427247 -2.123362,3.150573 -4.17437,5.119239 -3.853758,7.672845 2.981047,1.375932 2.009561,4.842754 -0.05659,6.690783 -2.906265,2.769045 1.135045,6.499115 3.617151,6.213434 0.598849,0.455415 8.784459,5.121923 2.099119,2.299947 -1.932093,-1.507848 -9.375088,-0.699042 -5.723259,0.984963 -0.762194,0.53327 -1.065814,1.701557 -1.588727,2.570374 -0.989799,1.644543 -1.859246,3.273182 -1.745928,4.9179 0.173184,2.513627 0.730319,3.136873 1.718746,4.627324 0.988428,1.490451 4.821237,3.019086 5.909013,3.184776 1.28875,0.190222 11.750636,1.020886 1.760917,2.399366 -3.918467,0.540709 -3.168963,3.841603 -2.532005,7.456173 0.478371,2.71463 0.683704,5.42698 0.621221,9.47995 -0.06248,4.05298 -2.400854,12.00017 -2.895637,17.19622 L 46.371239,132.0642 Z M 64.622827,60.134403 c -1.50069,-2.03846 -2.580716,-6.010084 1.412678,-5.784301 1.345605,0.981636 5.899721,3.287179 3.780745,3.792081 1.116652,-2.076014 -4.22537,-1.301822 -4.347588,1.177564 -0.207875,0.356894 -0.128824,1.1773 -0.845835,0.814656 z"
       id="path8"
       sodipodi:nodetypes="ccsczczcccccccccccccccccccccccccccccccccccccccccccccccccccccsszcsszcccccccc" /><path
       style="display:inline;fill:#352314"
       d="m 85.007908,92.868745 c -1.459127,-4.233852 4.144642,-5.245497 6.441776,-7.356697 4.843984,1.273156 -0.919017,7.526461 -4.463502,5.716351 -1.534304,-1.248944 -1.024651,3.658891 -1.978274,1.640346 z M 43.833494,80.572777 c -1.386096,-1.791032 -4.192752,-1.165875 -1.547124,-2.699924 1.643431,-1.816978 5.037329,-3.559009 6.417581,0.15297 4.966549,1.746326 -8.436111,-0.842581 -4.329928,2.708483 l -0.540535,-0.161527 z m 51.46611,-4.516711 c -0.794698,-1.776122 1.758408,-6.289204 -0.94666,-4.890028 -2.665695,-1.33227 -3.392332,4.138786 -5.504676,0.971427 -0.551337,-5.072998 1.137183,-10.601267 -0.338311,-15.358305 0.226452,-3.767712 -0.185354,-7.560459 -2.195409,-11.014101 -2.883358,-1.711545 -3.843891,-5.487474 -7.61638,-5.702298 -4.264646,-2.50924 -6.908502,0.393053 -11.125625,0.531478 -3.973171,-0.310446 -7.709736,-1.988933 -11.766923,-1.973077 -2.59857,-1.107196 -2.576984,2.871846 -4.938168,1.722217 -0.816454,0.359569 -1.516545,0.189003 -2.085548,-0.430075 -1.809535,2.492285 -1.43285,-1.921068 -2.636764,-2.30031 -0.168735,-1.864569 -1.926416,2.988189 -3.928903,2.642149 -2.168824,1.70526 -1.558389,4.961655 0.887099,2.629333 3.511039,-1.203546 8.400339,2.127387 8.832788,4.69114 2.825893,3.347026 1.09669,8.161377 -1.925812,10.746201 -1.302838,1.561616 -1.502972,1.749487 -2.652452,3.607686 -2.014085,1.288165 -1.565805,4.93622 0.606949,4.23514 2.998439,2.119368 -1.834012,5.47704 -3.104776,3.780236 -0.333791,-0.0067 -1.30539,-1.617631 1.438556,-1.438446 3.686451,-1.234439 -4.927064,-0.240944 -2.426615,-3.364884 1.735953,0.933102 -0.757058,-3.582144 0.925552,-3.423591 0.741428,-2.066286 -0.221337,-2.721885 1.568359,-3.558097 1.778876,-3.293282 -3.199429,-0.691928 -4.842462,-3.978253 -0.252975,-0.594571 -0.658388,-2.159841 0.08779,-2.670943 0.121154,-1.273944 0.707105,-2.924779 1.81174,-3.743213 -0.70223,-0.554446 -2.093079,-3.842651 -3.86553,-0.373088 -1.074138,3.701245 -1.351385,7.584539 -2.665668,11.15967 -2.547651,4.851795 -9.081458,-4.286633 -3.82543,-6.000972 1.864482,-4.299811 -2.936555,-7.595367 -3.95436,-11.394625 -0.838672,-2.712756 -1.941691,-5.361064 -0.262128,-6.983246 -0.900298,-0.465325 -1.822174,-0.950299 -0.32918,-1.529202 -2.491296,-2.031281 2.429755,-5.377238 1.496016,-8.848495 -0.560914,-3.290436 -0.182015,-7.17975 3.440487,-9.030458 2.657308,-3.240869 6.539606,-3.895914 10.459101,-3.974186 2.149874,0.09307 6.145487,-0.8127597 5.387644,1.244612 3.55119,1.870478 5.039423,2.379356 8.170094,4.965461 3.325183,-1.060312 6.174415,2.803394 8.841444,1.469871 -0.415221,-3.529069 -6.333006,0.495724 -4.758323,-3.346928 -3.082574,-1.241797 -8.406241,-2.965537 -9.180072,-5.418065 4.161892,-2.105214 9.158315,-1.1587377 13.705208,-0.8123719 4.596865,0.1262286 8.339741,1.9408499 12.064354,3.4624879 2.994949,1.312535 6.798147,1.6327 9.563979,2.56215 1.276461,-0.346661 3.149926,2.986459 4.146139,3.786678 0.127644,0.07554 0.330442,-1.377137 1.87545,0.09799 1.884956,-0.01468 -2.133707,4.73899 -1.610671,1.084791 -4.994153,-2.818466 -1.766256,7.354014 1.501417,4.146039 0.841996,-0.05929 3.532261,1.677248 2.274223,3.437771 -2.02907,-1.471068 0.620685,2.795246 1.73406,0.158851 2.539193,1.042738 3.905323,3.331902 5.012333,6.125176 -0.18415,2.204798 1.80621,2.257841 1.33571,2.688279 0.79893,1.805173 3.58326,1.694051 2.8854,4.699808 0.41079,0.39425 1.06738,3.758971 -1.46615,2.624085 -1.93569,-1.097382 2.90129,3.921282 2.24607,1.672656 0.52492,0.822309 3.40168,1.97136 1.9517,-0.592715 1.54816,-1.415587 1.02824,-3.33296 2.51031,-0.778707 -0.88572,0.391785 -1.02633,0.661186 -0.5031,1.178909 2.30192,-0.621076 -2.96523,5.915954 0.88148,4.70951 -0.36299,-2.865741 2.71183,-3.450556 2.30295,-0.168614 -0.0877,2.643281 -0.3735,2.074579 -1.73118,1.168822 -3.13131,0.967434 -1.79104,5.858246 -2.03921,9.1638 -1.07166,0.03093 1.13493,2.431754 -1.49131,1.864746 -1.24717,0.139781 0.12557,1.940339 -2.11633,0.810514 -3.06123,-0.614098 -2.03143,1.998141 0.0961,2.532538 -3.22572,1.497614 2.44637,6.304305 2.04166,1.651883 0.33005,-2.513279 3.47695,-0.317502 4.05529,-2.178802 1.27093,1.055346 -1.91635,1.739776 -2.43365,1.823967 -1.56139,1.08253 -2.46145,5.605757 -4.98562,4.587724 -0.79778,1.433557 -4.42967,2.954914 -4.52209,0.97078 1.92204,1.759992 2.50247,-0.912673 2.46898,-0.700441 1.27636,-3.987403 -5.084501,0.247769 -5.214835,-0.727468 0.744745,2.859015 -0.612138,0.770242 -1.060317,-0.1665 -4.214921,1.487029 1.232148,4.552701 1.344686,4.039487 3.764876,0.887055 -3.099178,1.330595 -3.900458,1.424437 z M 49.368667,55.177711 c -1.587158,-2.48024 1.094234,-3.661023 -1.452074,-5.536589 1.907337,-1.29582 -0.347361,-2.336674 -1.34692,-2.451508 -1.771221,-1.025174 -3.906537,-2.146063 -2.877662,-0.13269 1.566782,0.999369 3.886428,2.624442 0.625363,2.711513 -2.809873,0.87943 5.302034,1.677715 0.809918,1.376321 -4.354787,-0.387453 -3.56924,4.768416 0.492445,4.193472 1.210743,0.25292 2.639939,0.608299 3.74893,-0.160519 z"
       id="path5"
       sodipodi:nodetypes="ccccsccccsscccccccccccccccccccccccccccccccccccccccccccccccccccccccccccccccccccccccsscccccccc" /><path
       style="display:inline;fill:#959595;fill-opacity:1;stroke-width:3.25001;stroke-linecap:round"
       d="m 66.248457,57.643086 c -0.457738,1.177354 0.752853,2.89388 2.346922,3.235425 1.594069,0.341546 4.33486,0.352771 4.660836,-0.283737 0.325975,-0.636509 -0.555667,-2.581545 -2.391418,-3.497893 -1.835751,-0.916348 -4.158601,-0.63115 -4.61634,0.546205 z"
       id="path40"
       sodipodi:nodetypes="zzzzz" /><path
       style="display:inline;fill:#25160f;fill-opacity:0.567296;stroke-width:1.98349;stroke-linecap:round"
       d="m 62.778739,48.310004 c -0.165228,0.401191 0.310693,0.795941 0.913446,1.241715 0.602759,0.445774 1.861001,1.015518 2.790298,0.977672 0.929295,-0.03784 2.297319,-0.551585 3.375462,-0.556632 1.078143,-0.005 2.83314,0.651185 3.352277,0.8403 0.519136,0.189115 1.437952,0.913451 1.528954,0.822459 0.091,-0.09099 -0.610143,-0.867062 -1.234581,-1.234581 -0.624437,-0.36752 -2.571077,-0.780789 -3.596697,-1.120397 -1.02562,-0.339609 -1.542918,-0.690285 -2.561929,-0.899174 -1.01901,-0.208888 -2.078129,-0.399507 -2.842027,-0.365734 -0.763897,0.03377 -1.55997,-0.10682 -1.725203,0.294372 z"
       id="path10-2"
       sodipodi:nodetypes="zzzzzzzzzzz" /><path
       style="display:inline;fill:#25160f;fill-opacity:1;stroke-width:1.98349;stroke-linecap:round"
       d="m 41.794218,44.573201 c 0.338617,-0.274539 0.979653,-0.8651 1.953592,-1.125521 0.973939,-0.260422 2.212038,-0.228518 3.386516,0.07054 1.174478,0.299059 2.43546,0.78346 3.40546,1.547263 0.969999,0.763803 1.516968,1.597252 1.277343,1.823548 -0.239625,0.226296 -1.955371,-0.764488 -2.583616,-1.009224 -0.628243,-0.244737 -2.498447,-0.912409 -3.451547,-1.049594 -0.9531,-0.137185 -1.432184,-0.09048 -2.169833,0.02019 -0.737648,0.110663 -1.84865,0.984971 -2.210201,0.655995 -0.361553,-0.328977 0.05367,-0.658653 0.392286,-0.933191 z"
       id="path11"
       sodipodi:nodetypes="zzzzzzzzzz" /><path
       style="fill:#4e4e4e;fill-opacity:1;stroke-width:3.25001;stroke-linecap:round"
       d="m 41.989733,52.474916 c 0.179836,-0.785828 1.706659,-1.480897 3.473584,-1.313768 1.766924,0.167129 2.475024,0.755271 3.247716,1.530805 0.772693,0.775534 1.21987,1.352366 0.906264,2.057619 -0.313606,0.705252 -1.328349,0.602543 -2.167443,0.592043 -0.839093,-0.0105 -2.836979,-0.08076 -4.06092,-0.603269 -1.223942,-0.522507 -1.579038,-1.477603 -1.399201,-2.26343 z"
       id="path41"
       sodipodi:nodetypes="zzzzzzz" /><path
       style="fill:#58759f;fill-opacity:1;stroke-width:3.25001;stroke-linecap:round"
       d="m 68.261373,57.396016 c -0.08604,0.263148 -0.275925,0.898224 0.0099,1.378757 0.285858,0.480534 0.79147,0.851457 1.510588,1.020318 0.719118,0.168861 1.353688,0.102035 1.766777,-0.01888 0.413089,-0.120923 0.92446,-0.685137 0.99859,-1.121483 0.03298,-0.194142 0.02732,-0.175592 -0.178843,-0.415134 -0.257204,-0.298841 -0.546627,-0.614243 -0.869908,-0.820403 -0.582413,-0.371411 -1.649012,-0.755796 -1.986063,-0.789787 -0.200446,-0.02022 -0.369689,-0.09293 -0.567101,-9.79e-4 -0.170778,0.07955 -0.59793,0.504443 -0.683974,0.767591 z"
       id="path42"
       sodipodi:nodetypes="zzzzsssssz" /><path
       style="display:inline;fill:#000000;fill-opacity:0.745912;stroke-width:3.25001;stroke-linecap:round"
       d="m 69.417101,57.587998 c -0.01451,0.180333 0.0096,0.344217 0.130188,0.622887 0.120547,0.27867 0.526075,0.539713 1.017294,0.473567 0.491219,-0.06615 0.711264,-0.493958 0.766011,-0.703764 0.05475,-0.209806 0.04482,-0.471386 -0.09299,-0.573053 -0.13781,-0.101667 -0.676787,-0.506404 -1.043953,-0.517116 -0.367166,-0.01071 -0.546283,0.153833 -0.631687,0.261552 -0.0854,0.107719 -0.130355,0.255594 -0.144865,0.435927 z"
       id="path44"
       sodipodi:nodetypes="zzzzzzzz" /><path
       style="display:inline;fill:#58759f;fill-opacity:0.861635;stroke-width:3.25001;stroke-linecap:round"
       d="m 43.967297,51.471309 c -0.121275,0.292418 0.02046,1.065522 0.154934,1.422164 0.13447,0.356642 0.56195,0.902786 1.176612,1.157613 0.614662,0.254827 1.733983,0.171954 2.148595,-0.0045 0.414612,-0.176455 0.961595,-0.814975 1.027533,-1.11029 0.06594,-0.295316 0.114929,-0.416038 -0.196816,-0.740743 -0.311745,-0.324705 -1.264823,-0.800272 -1.669696,-0.921564 -0.404873,-0.121292 -1.653562,-0.270445 -1.950237,-0.198029 -0.296675,0.07242 -0.56965,0.102938 -0.690925,0.395351 z"
       id="path43"
       sodipodi:nodetypes="zzzzzzzzz" /><path
       style="fill:#000000;fill-opacity:0.745912;stroke-width:3.25001;stroke-linecap:round"
       d="m 45.376041,51.798388 c -0.212907,0.303859 -0.243754,0.589511 -0.150896,0.882633 0.09286,0.293121 0.341783,0.525323 0.624252,0.58291 0.282469,0.05759 0.726458,-0.01779 0.959114,-0.245979 0.232656,-0.228191 0.291455,-0.549839 0.254247,-0.857829 -0.03721,-0.30799 -0.260433,-0.558123 -0.628385,-0.673862 -0.367952,-0.115739 -0.845425,0.0083 -1.058332,0.312127 z"
       id="path45"
       sodipodi:nodetypes="zzzzzzz" /><path
       style="display:inline;fill:#25160f;fill-opacity:1;stroke-width:2.43902;stroke-linecap:round"
       d="m 51.7361,67.474612 c 0.008,0.362945 0.941137,0.728215 1.25962,1.098292 0.318475,0.370078 0.537446,0.830226 0.789325,0.871291 0.251879,0.04105 0.57148,-0.03835 0.685866,-0.236824 0.114386,-0.198506 0.06874,-0.8011 -0.215572,-1.236355 -0.284359,-0.43526 -0.961587,-0.818087 -1.414815,-0.868857 -0.453222,-0.05077 -1.112394,0.0095 -1.104424,0.372453 z"
       id="path12"
       sodipodi:nodetypes="zzzzzzz" /><path
       style="fill:#4fb1c5"
       d="m 55.07566,96.513526 c -1.282231,-1.517394 -2.112623,-3.297705 -3.320543,-4.774019 -0.785235,-1.68231 3.325311,-3.89167 0.343369,-4.666395 -2.482299,-1.468623 1.39002,-2.33445 0.940011,-4.278004 0.862698,-1.614768 3.342498,-3.852495 0.212961,-4.534705 -1.072156,-0.594076 -4.000775,-2.883482 -1.915686,-3.421888 -0.963264,-0.918644 -3.265888,-3.099534 -0.43896,-2.810804 1.80467,0.03935 4.638108,-0.715108 5.115297,-2.429322 -1.408458,-0.673278 -3.446359,-3.361199 -0.432201,-2.790227 0.881761,0.112716 3.655531,-0.350651 1.321494,-0.7746 -1.178405,-0.912911 -4.254471,-1.026159 -4.846374,0.547878 -1.449455,0.809434 -0.657622,-2.428103 0.763964,-2.05251 2.140434,-1.108608 3.927236,-2.64595 6.308387,-3.170888 0.886416,-0.947828 2.233216,-1.965981 2.935777,-2.817818 -1.773626,-0.05543 -4.364309,-3.98401 -1.076335,-3.288547 1.010199,0.649979 4.08783,2.439785 3.17659,-0.200418 -1.223043,-2.49694 -3.857496,-4.028105 -4.901522,-6.65306 1.317211,-0.978088 3.209704,0.511486 4.295179,1.432485 0.90597,0.69837 2.455862,3.211062 3.427523,1.988529 -1.049364,-1.6459 -0.206214,-3.835912 0.450627,-5.493702 0.859375,-0.325154 2.141008,1.329721 1.51181,-0.536823 0.1009,-1.938325 2.474829,-0.644739 2.760394,0.362906 0.990191,-1.197574 3.233692,-1.517096 4.588749,-2.631887 1.018694,-1.342107 1.772504,0.349839 2.15697,0.326677 1.593155,-1.306574 0.705987,1.398781 1.666875,1.534583 0.146375,0.348389 1.026457,-0.730998 0.769881,0.8599 0.150894,0.75521 1.403809,0.439364 0.599127,1.465537 0.52859,1.955684 -0.874308,2.950152 -2.082957,3.908002 -1.001739,1.725986 0.81142,3.065405 1.819067,3.428777 -1.483428,1.22402 0.136986,3.281212 -1.828532,3.535657 -1.580687,-1.247323 0.235091,2.518723 -1.819096,1.916434 -0.710825,0.669544 2.172313,1.250021 0.19772,1.49465 -1.058995,1.211522 0.73609,2.796927 -0.662857,4.119482 0.215853,1.259989 -1.627871,0.751291 -0.106546,1.407648 -2.40126,0.529735 -2.471736,2.724103 -3.712442,4.423629 0.173868,1.121035 -1.49114,2.928411 -1.01234,0.709052 -0.679753,1.147334 -0.891063,0.457305 -0.831492,-0.484292 -1.12306,1.016869 1.262545,2.438838 -0.799541,1.809214 0.228243,0.393601 2.202323,1.719589 0.443325,1.891619 -0.849598,1.562114 0.659676,3.148431 -0.526623,4.175161 -1.051887,0.390317 -0.681644,1.148758 -2.098297,1.480635 0.558057,0.566743 0.578397,2.189217 0.553445,2.588647 -1.585834,1.453928 0.84603,2.956322 -0.679037,4.654108 -0.254592,1.456958 -1.575219,1.014025 -1.844794,1.018941 0.05309,1.454389 -2.09361,0.09321 -1.128531,1.592742 2.121539,0.006 -0.362069,1.435221 0.211051,2.030059 -0.518153,-1.398907 -1.339271,-0.733513 -0.422946,0.167172 -1.966552,0.35803 -1.012498,3.574 -3.285692,4.118756 -1.282426,0.182457 -0.87879,-3.824856 -2.726198,-2.634886 0.07249,1.102286 -0.961369,3.151013 -2.178159,2.265426 -0.976229,0.557291 -1.375689,0.04021 -1.891892,-0.809511 z"
       id="path51"
       transform="translate(32.964572,27.210221)" /><path
       style="fill:#55a1b0"
       d="m 55.686587,97.438581 c -0.782186,-1.770375 -2.630788,-3.053305 -3.274651,-5.004162 -2.766847,-1.542482 3.059983,-4.479164 -0.31345,-5.361307 -2.482299,-1.468623 1.39002,-2.33445 0.940011,-4.278004 0.862698,-1.614768 3.342498,-3.852495 0.212961,-4.534705 -1.072156,-0.594076 -4.000775,-2.883482 -1.915686,-3.421888 -0.963264,-0.918644 -3.265888,-3.099534 -0.43896,-2.810804 1.867535,0.05625 4.832753,-0.901093 5.353203,-2.541728 -1.620438,-0.174232 -3.731182,-3.347172 -0.670107,-2.677821 0.881761,0.112716 3.655531,-0.350651 1.321494,-0.7746 -1.178405,-0.912911 -4.254471,-1.026159 -4.846374,0.547878 -1.449455,0.809434 -0.657622,-2.428103 0.763964,-2.05251 2.140434,-1.108608 3.927236,-2.64595 6.308387,-3.170888 0.692376,-0.958315 2.717552,-2.088404 2.789193,-2.89655 -0.175687,-0.636888 -3.33757,-1.265162 -2.243369,-2.627176 0.656951,-2.407541 3.047708,1.399726 4.502644,0.587867 0.579301,-2.434938 -2.39458,-3.92286 -3.498889,-5.768228 -1.508375,-1.016 -1.727253,-3.686884 0.428643,-2.259172 1.817264,0.264985 1.897917,1.415166 3.349236,2.378406 1.186626,1.31819 3.25334,1.556347 3.482498,3.430129 0.27939,-1.649066 -2.75874,-3.728088 -0.914197,-5.616409 -1.118878,0.303445 0.428021,-1.797486 0.519516,-2.412227 0.919539,0.49966 1.87557,1.191488 1.375672,-0.639566 0.585804,-1.66403 2.412448,-0.248469 2.789093,0.616445 0.990191,-1.197574 3.233692,-1.517096 4.588749,-2.631887 1.018694,-1.342107 1.772504,0.349839 2.15697,0.326677 1.593155,-1.306574 0.705987,1.398781 1.666875,1.534583 0.146375,0.348389 1.026457,-0.730998 0.769881,0.8599 -0.175528,0.742303 1.62249,0.393468 0.599451,1.192975 1.232346,2.50015 -2.947255,3.859088 -2.375299,5.511094 -0.208755,1.165774 0.254862,2.135352 1.943343,1.714146 0.05447,0.821407 -1.087689,2.252907 -0.466536,3.330291 -1.320491,1.073372 -1.999339,-0.271087 -3.364509,0.04553 -0.236146,0.96582 -0.591691,1.624537 -1.136329,1.762642 0.86745,1.073144 -0.398157,1.710847 -0.767649,2.14512 0.603349,-0.309104 -1.10266,1.511208 -0.963029,1.147092 -1.263489,-0.24441 1.302284,1.560854 1.005735,1.641432 0.908786,1.03213 1.231563,-0.926163 0.770434,-1.309982 1.465594,1.358909 0.72368,-2.890401 2.328591,-1.713714 -2.369429,0.598905 0.261528,3.043541 -1.351781,4.401908 0.161127,1.223026 -1.126582,0.625913 -0.665935,1.652536 -2.031738,0.818307 -2.573454,3.269818 -3.290602,5.11203 -0.332971,0.868974 -1.332466,1.40192 -0.874791,-0.224237 -0.958051,1.73308 -1.061161,-0.732719 0.02149,-0.783896 -0.355514,-1.127278 -2.063671,-2.624101 0.162405,-2.290641 0.137543,0.958357 1.155578,-2.109092 -0.136982,-2.478121 1.543568,-0.808031 -1.985365,-2.569498 -0.01313,-2.393207 1.070205,0.202447 0.277593,1.949239 1.482697,2.489529 -1.137028,1.414264 2.164018,-0.393216 1.956886,-1.159301 -0.07817,-1.490454 -2.386311,-0.801368 -1.897379,-2.041058 -0.76792,-0.0025 -1.536415,-2.389398 -1.5138,-0.976627 -0.545496,-0.671534 -3.108589,0.07447 -3.560493,2.349731 -0.191857,2.232709 1.802741,3.130013 1.150242,5.29376 0.448308,1.210008 -2.131619,3.457103 0.316863,2.495015 1.150724,-1.023056 0.834925,-0.660197 1.033015,0.530812 1.438383,0.923737 -1.697457,-0.488057 -0.283298,0.771588 1.202968,0.251991 0.971709,1.543669 -0.06574,1.349485 -0.607655,1.666907 0.831828,3.148612 -0.367092,4.234598 -0.297263,0.620949 -1.925882,0.372937 -0.754203,1.018404 -1.245801,-0.367635 -0.921155,-0.490972 -1.393583,0.48164 0.804574,0.597306 0.413693,2.752317 0.639248,2.589638 -1.408073,0.581666 -0.104039,2.358913 -0.232933,2.591047 -0.612348,0.833847 -2.051236,3.977735 -0.45386,1.543569 0.505066,-0.616201 -0.453429,2.350624 -1.192613,1.367365 -0.467436,0.707827 -0.664502,-0.304458 -0.818278,0.643094 -0.56894,-1.174359 -0.247782,1.641559 -1.07404,-0.01055 -0.617096,-1.668565 -0.546541,1.745237 0.854185,1.265519 0.552285,0.615232 -0.940932,1.218314 -0.678019,1.623781 -0.0035,-1.128755 -2.012388,-3.110583 -1.47771,-0.68418 0.100207,1.1572 -0.643615,2.169324 0.138239,1.965374 -0.630171,1.550996 -1.889706,0.73343 -0.921853,-0.298306 -1.431041,0.257768 1.23694,-1.005881 0.232126,-1.990992 -0.07953,-0.932749 -1.495382,-4.459085 -1.602971,-1.900289 -0.308384,0.09376 0.267045,2.546105 0.416404,3.040547 -0.29642,0.829702 -1.753879,3.53014 0.28178,2.476345 2.819044,-0.785614 -1.73818,3.827462 -1.157188,1.003158 -0.672868,-0.08622 -1.300545,-2.27009 -1.397059,-2.702255 -0.486478,0.759215 -1.578757,1.500978 -0.850388,1.798552 -1.235396,0.601913 0.122344,0.790977 -1.013053,1.349827 -0.311878,0.994395 -1.438426,-0.263162 -2.255895,0.350009 l -0.168446,-0.124106 z m 4.126836,-5.10039 c -0.09907,-1.579271 1.276617,-3.643533 -0.459152,-4.400686 0.928726,0.817632 0.777,-3.07151 -0.640435,-2.0045 -1.19044,-0.71511 -0.08921,-3.342225 -2.057802,-1.821079 -1.883544,1.025578 -0.829305,3.709185 1.102116,3.436501 -0.783305,0.474612 -1.154098,-0.261114 -0.150184,0.882685 0.697543,1.171859 0.728159,2.925998 0.91188,3.936031 -0.01686,-0.802245 1.251284,-1.289502 0.805105,-0.81432 -0.333918,-0.477701 0.743815,2.600291 0.488472,0.785368 z"
       id="path50"
       sodipodi:nodetypes="ccccccccccccccccccccccccccccccccccccccccccccccccccccccccccccccccccccccccccccccccccccccccccc"
       transform="translate(32.964572,27.210221)" /><path
       style="fill:#2dadc6"
       d="m 55.393599,96.676763 c -0.992885,-1.62801 -2.235718,-2.158789 -2.527133,-3.933014 -0.777975,-0.291577 -1.438105,-1.294558 -0.832182,-2.283162 -1.289628,-0.329897 2.428745,-0.680925 1.0783,-0.903827 0.45058,-1.559067 -0.246158,-2.886413 -1.579889,-2.926953 -1.476974,-1.693382 2.084877,-1.525887 1.416978,-3.278398 0.02103,-1.532928 3.165991,-3.621258 1.777369,-4.486741 -1.398375,-0.427481 -4.885012,-2.288519 -3.543919,-3.72917 0.757766,-0.915581 -1.897104,-1.587579 -1.731351,-2.899989 2.085073,-0.233937 4.397592,-0.224085 6.161402,-1.726805 2.270471,-1.374268 -2.391453,-1.585732 -1.704967,-3.523429 0.897744,-0.352332 4.255801,0.03032 3.66925,-0.698172 -1.449622,-1.073813 -4.268571,-1.489729 -5.51018,-0.02588 -0.283494,1.102478 -1.17503,-0.237379 -0.393997,-0.705774 -0.05105,-0.542959 -0.11723,0.351731 0.684778,-0.656791 1.286929,-0.765124 1.438997,0.07458 2.676222,-1.386782 0.560487,-1.411703 3.376755,-1.376621 4.669436,-2.662159 0.807167,-1.195502 1.775262,-1.273609 2.233146,-1.873252 1.286327,-0.769064 0.302334,-0.446302 -0.361666,-0.75754 0.300126,-0.517352 -1.268074,0.113671 -1.365053,-1.068057 -1.800885,-0.647452 0.05321,-3.281864 1.515618,-1.58156 1.283901,1.336299 2.538311,1.482995 2.605781,-0.531056 -0.367399,-1.687874 -2.782887,-2.493486 -3.561074,-4.259188 -0.62529,-0.933937 -2.425578,-3.713884 -0.434053,-1.768751 -1.03064,0.25631 1.580136,1.102331 0.636693,-0.177296 0.539412,-0.921626 1.235463,0.13905 1.384916,0.169831 0.684623,-0.402741 1.122041,1.8846 1.090803,0.723764 0.391177,1.143966 0.738956,0.916582 1.319527,1.746684 0.607563,0.520241 2.942611,1.355895 3.158082,2.72586 0.654304,-1.37888 -2.762413,-3.374737 -1.101704,-5.364507 0.262541,-0.225506 -0.837186,-0.251745 0.120877,-1.033072 -0.109476,-1.902175 1.341036,-1.350503 2.341996,-0.919077 -1.438099,-2.528198 2.0015,-2.40213 2.420343,-0.798461 0.799121,-0.915935 2.639422,-1.484147 3.781896,-1.703568 0.532943,-0.560971 1.943145,-2.163023 1.642595,-0.778103 0.367539,0.31281 -1.03439,1.89122 0.543245,0.989012 0.360457,-0.862128 2.759135,-1.562471 1.44593,-0.105674 -1.236105,1.206297 1.161521,-1.462936 -0.374779,-0.452089 -1.15907,0.979662 -0.913256,2.252499 0.562655,2.173035 0.31429,1.911668 -0.988084,3.706425 -1.683934,5.235423 -1.313736,0.302118 0.183141,1.368872 -1.318492,1.901527 0.335142,0.314344 1.695209,0.260045 0.244939,0.695097 -2.697358,0.152018 1.01399,0.373324 1.159149,1.740438 1.965076,1.198949 -1.415792,2.281381 -1.056642,3.820535 -1.205735,-0.224537 0.723773,2.382424 -1.236336,2.285898 1.138412,0.224608 -1.623434,1.647289 -1.061859,2.038182 1.282468,1.054931 0.353043,1.435572 -0.395862,0.190879 -0.852661,-0.363148 -1.370741,-1.194432 -2.118349,-0.625693 -0.274429,-1.321008 -0.501054,2.090363 -0.660967,0.0068 -0.942546,0.648199 0.224944,4.244172 -0.982982,2.357509 -0.02984,-1.850348 -1.745294,-1.267782 -1.13017,0.330905 0.205777,1.786614 1.525369,2.724115 0.793253,4.534884 -1.097908,-1.086017 0.864537,1.98349 -0.752311,2.272847 -1.078255,1.139014 0.01295,2.9537 0.590841,3.035495 -0.999184,-0.511428 -2.680532,1.243663 -0.859024,0.592964 2.324611,-0.339355 -0.819952,1.272519 0.08214,2.466301 -0.426366,0.785102 -2.64832,2.427642 -0.697914,2.2958 -0.268172,0.428528 -2.250622,0.655778 -0.840969,1.174034 -0.567019,1.201234 -0.676588,2.737273 -1.527813,3.668892 -0.109902,0.70833 -1.410228,-0.03984 -0.851153,-0.359068 -0.697615,0.517671 -2.474855,0.970275 -1.008871,1.74704 0.554091,1.083802 -1.732003,1.046883 -0.05522,1.640531 0.357004,1.475711 -2.364329,0.262184 -2.19908,-0.903595 -1.699725,-1.510853 0.770505,1.765125 0.141028,2.764363 1.649455,0.762707 -0.04267,2.951821 -0.455617,4.005514 -1.560374,0.732075 -1.154993,-2.355493 -2.88783,-2.360831 1.159388,0.208966 0.38166,4.189707 -0.96754,2.24308 -0.125122,-1.027271 -2.338836,1.415304 -2.060367,-0.07759 -1.895717,-0.817441 0.01998,0.357123 0.127203,1.478779 1.237981,0.983337 1.721971,-2.79419 1.808638,-0.236501 -0.564192,0.745328 -1.321245,2.22373 -2.053783,0.509707 z m 4.419824,-4.338572 c -0.09502,-1.577696 1.263045,-3.632509 -0.442315,-4.400686 1.12568,1.108866 -0.06169,-2.798174 0.498467,-2.762124 -0.112873,0.966656 1.753999,3.395334 0.932312,1.382547 -0.554771,-0.804475 -1.572615,-3.252667 -0.301003,-1.650615 1.316749,0.05173 -1.639689,-2.294031 0.238401,-0.947612 0.958983,1.000751 -0.546484,-1.455633 0.826688,-0.566962 0.553611,-0.647238 -2.848057,-1.058069 -0.945315,-0.370381 -0.922819,0.468248 -1.366803,1.470141 -1.516421,-0.284591 0.440986,-0.434199 1.947634,-0.776009 0.370865,-0.880958 0.196074,-1.003598 0.807986,-1.459638 -0.620141,-0.95958 0.17029,0.913595 -1.156919,3.03172 -2.641637,3.585367 -1.17062,1.543319 -0.263536,3.056077 1.197803,3.759778 0.92276,1.163947 0.907238,3.045839 1.108725,4.124786 0.759603,-2.051446 1.151567,0.434179 1.335808,0.442667 l -0.04224,-0.471615 z"
       id="path49"
       sodipodi:nodetypes="scccccccccccccccccccccccccccccccccccccccccccccccccccccccccccccccccccccssscccccccccccccccs"
       transform="translate(32.964572,27.210221)" /><path
       style="fill:#2899af"
       d="m 54.592691,95.125703 c -1.127147,0.01776 -0.758719,-1.143323 -1.706656,-1.56747 0.355167,-1.389972 -1.966174,-1.433068 -0.851751,-3.097646 -1.289628,-0.329897 2.428745,-0.680925 1.0783,-0.903827 0.45058,-1.559067 -0.246158,-2.886413 -1.579889,-2.926953 -1.476974,-1.693382 2.084877,-1.525887 1.416978,-3.278398 0.16399,-1.591873 3.116211,-3.735684 1.767841,-4.628858 -0.388353,-0.193254 -2.271507,-0.49932 -2.46165,-1.539323 0.517254,1.472042 -3.127381,-2.167753 -0.722474,-2.231614 -0.575944,-0.980317 -2.185782,-1.579885 -1.993718,-2.804304 2.248473,0.01703 4.539356,-0.329105 6.348732,-1.833882 1.510962,-1.310161 -1.920051,-1.119772 -1.882474,-2.689855 -0.313533,-1.690896 3.06908,-0.155657 3.962389,-1.283095 -1.736148,-0.813519 -3.850781,-1.611095 -5.69121,-0.23308 -0.300524,1.129934 -1.240388,0.446499 -0.843613,-0.467202 -0.05105,-0.542959 0.217633,-0.57121 0.366451,-0.674361 1.338995,-0.653856 2.035759,-0.215498 3.371118,-1.427452 0.486526,-1.905639 3.979858,-1.196423 5.000884,-3.144788 0.588216,-0.144803 1.110546,-1.561994 2.446722,-1.070602 -1.539437,-0.0403 -0.154333,-0.617039 -0.09343,-0.951184 -1.117638,0.299158 -0.695926,-0.990197 -1.594235,-0.113416 0.403504,-0.819307 -0.856245,-0.379376 -0.460345,-1.373982 -1.187509,1.14544 -1.340044,-2.422714 -0.66307,-0.256683 -0.212731,-3.071348 3.832887,-0.36899 4.385699,1.095259 0.789736,1.094001 2.178039,1.281036 1.869247,-0.429196 0.665534,-1.217312 -0.208238,-2.478637 -0.342513,-3.280896 2.06923,0.694381 1.263715,3.362104 1.060957,4.534869 1.667828,1.260927 -3.033506,2.886866 -0.6385,4.529877 0.969517,0.713153 1.186375,1.709105 0.355562,1.452542 0.06481,0.837284 -2.645754,-0.06336 -0.955634,0.710898 2.920709,-0.06488 2.257531,3.130445 1.188241,4.792653 -0.866548,1.069823 0.06343,2.057317 0.740632,0.567522 0.702725,-0.94365 1.426048,-4.954638 1.887993,-1.916817 0.667847,1.220057 0.358764,3.459582 -0.505477,4.873738 -0.809079,0.664287 -2.318377,1.324088 -1.772921,-0.313714 0.107818,-1.068162 -0.42244,-2.153046 -0.488273,-0.662451 -1.11327,0.355119 -2.555115,3.386482 -2.230183,0.533185 -0.376183,-0.744294 -1.931065,-1.374699 -2.390661,-1.310909 -1.184117,1.002672 -1.164726,2.122363 -0.427038,3.124291 -0.319579,0.369902 2.685534,0.280861 1.377402,0.783784 -0.515298,0.427489 -0.726986,1.236289 -1.868339,0.628459 -1.069374,-1.000583 -1.930374,-1.210287 -2.580344,0.316516 -1.647472,1.030542 -1.067643,2.44605 -1.407168,3.949724 -0.67572,0.570518 -1.14478,0.424517 -0.957259,0.832987 -1.122043,0.481273 0.217774,2.65864 0.504728,1.582185 -1.040623,-0.633172 1.57388,0.649293 1.429207,-0.599611 0.432036,-0.737766 -1.637549,0.06099 -0.129729,-0.928548 -0.860449,-1.442708 0.196819,-0.251315 0.330708,0.39007 1.579802,-1.174913 -0.519647,1.854851 -1.173858,2.031315 -2.039248,0.395691 -2.530946,2.542072 -0.613013,3.572657 1.919795,1.097897 0.955401,3.09818 1.422423,4.904631 -1.074041,-0.98238 -0.64209,3.472935 -2.391106,2.016456 -0.394433,-0.03499 -0.03467,1.345173 -0.895685,0.716499 z m 8.100604,-28.128384 c 0.541585,-1.225154 0.04039,-2.614971 -1.490991,-2.260401 -1.196452,-0.856109 -5.078182,-0.3774 -4.96859,0.404302 1.527504,0.297339 2.361575,0.796533 3.794887,1.404936 0.66056,0.317109 1.855114,1.098174 1.666309,0.375744 0.02744,0.73095 1.16873,1.384929 0.998385,0.07542 z M 61.067094,86.72211 c -0.650685,-0.676936 -1.983361,-3.511348 -0.566212,-1.814798 1.441062,0.07378 -1.760442,-2.118648 0.22233,-1.0773 0.679746,1.317817 -0.0056,-0.92611 0.412942,-0.461047 1.992238,-0.164599 -2.683857,-1.215465 -0.515498,-0.346608 -0.922819,0.468248 -1.366803,1.470141 -1.516421,-0.284591 0.440986,-0.434199 1.947634,-0.776009 0.370865,-0.880958 0.02766,-0.631122 0.861416,-1.706704 -0.371263,-0.759018 0.877418,-1.368833 2.046865,-3.201202 3.110128,-3.999879 0.446067,1.843051 1.318035,-2.379441 1.468808,-0.253561 0.20185,1.62831 0.511001,-0.451466 1.535559,0.389702 0.979927,-0.691742 5.533151,0.202375 2.690669,0.747094 -1.386954,1.012141 1.715031,0.806394 0.03236,1.951942 -0.228932,1.381557 -0.491094,0.189302 -0.783826,0.742431 0.988802,0.986642 -0.363062,1.772451 -0.476686,0.499942 -1.965319,0.695066 2.202691,1.417861 -0.324953,1.508122 -0.974466,0.403636 -0.856689,1.551428 -1.651602,1.845067 0.142103,1.022748 2.337876,-1.1763 0.863745,0.444823 1.30742,0.753392 -0.504421,0.687879 -0.853103,1.304592 -0.471766,-0.299193 -2.415362,-1.158286 -0.896174,0.01889 -0.670321,-0.623029 -2.122569,1.286106 -1.440934,-0.106866 -1.625348,-0.40847 -0.649341,0.464877 -0.511672,1.259628 -0.306753,-0.195219 -0.545397,-0.472536 -0.799063,-0.72761 z m 7.663202,-22.242459 c -1.653134,-0.947094 -0.235264,-2.600596 0.93036,-1.517121 -0.727935,-1.392715 -2.164983,-0.268854 -1.930151,-2.306474 -0.46208,-1.283994 1.39531,-2.642034 1.327723,-1.32156 0.918668,-0.500619 -0.676526,-2.31898 0.931325,-2.826005 -1.475134,-1.298612 -2.231711,-3.371527 -2.605876,-5.225581 0.972875,0.476767 1.353105,-3.646009 -0.556196,-2.586553 1.33021,0.710171 -0.567217,4.113068 -0.309715,1.459481 0.156803,-1.286872 0.150277,-4.304211 1.860107,-3.648488 2.015909,1.498607 -0.600095,-1.913274 1.45189,-1.743708 1.516304,-0.498135 1.293962,2.234427 2.244179,0.956506 1.367451,-0.777252 2.566268,-1.129068 3.415869,-1.339672 0.528631,-0.559399 1.941619,-2.155946 1.642595,-0.788057 0.359234,0.313943 -1.009949,1.927008 0.451954,1.032813 2.188875,-1.95677 -0.827243,2.157402 1.991271,1.434274 0.352051,0.878759 -0.688972,2.428079 -0.445101,0.542104 -0.864838,-0.49673 0.108833,1.768177 -0.151297,1.898802 -0.343278,1.347224 -3.815492,1.080887 -2.296282,1.638974 -0.106976,0.256972 2.069191,-0.470851 0.394207,0.254539 -0.910629,0.71926 -1.418456,-0.415876 -1.64879,1.043641 0.783796,-0.277177 1.13302,1.036566 0.343779,0.05866 0.03011,0.976952 -1.297089,1.343453 -0.631591,0.418959 -0.627075,-1.627421 -1.413561,1.227657 -1.172114,0.77173 0.910755,-0.326987 1.71409,1.102866 2.078263,0.846391 -0.112289,0.701045 -0.02067,0.155866 -0.806043,0.550672 1.143345,0.628835 1.915738,1.488536 1.926478,3.050034 -0.613491,0.651567 -1.409029,1.230391 -0.619043,1.725089 -0.324392,1.251471 -0.414649,-0.64124 -0.935987,0.827091 -0.799464,0.575332 -0.158294,0.561151 0.203378,1.477882 -0.810161,0.448152 -1.344525,0.415765 -2.358304,0.208901 0.429529,0.7194 1.063028,1.017398 -0.15591,1.319431 0.204842,0.413932 2.131962,2.512743 0.560627,1.399484 -1.011684,-0.810677 -2.440509,-3.189795 -2.832959,-0.930688 -0.977928,-0.848151 -0.474471,-2.801418 -0.516627,-2.894554 -0.643432,0.832646 -1.277555,-0.391633 -1.652627,0.686254 -0.968032,0.232117 0.597442,-0.817632 -0.471242,-1.244961 0.218113,0.830687 -0.852088,1.56097 0.612127,1.831267 0.444349,0.981925 1.120987,-0.820967 1.11167,0.686223 0.509499,0.782574 0.2327,3.53534 -0.586814,1.528615 -0.633019,0.04032 0.215589,1.200415 -0.795133,0.725608 z m 5.039716,-14.020133 c 1.717635,-1.238408 3.436716,-2.748862 4.263598,-4.737955 -0.53322,-0.724165 -1.865908,0.963552 -2.442067,-0.265951 -0.435139,1.444567 2.823453,0.08498 0.785464,1.25541 -0.116092,0.596739 -0.693965,2.700081 -0.611066,0.911754 0.906116,-0.814638 -1.624423,-0.868735 -0.296999,0.04872 0.312227,1.365025 -2.82177,3.574459 -2.896147,2.876778 0.71472,-0.85323 0.23568,-2.742395 -0.175457,-0.769856 -0.168602,-0.978183 1.02345,-4.490114 -0.10011,-1.959239 -1.72874,-0.06042 -2.464952,2.062899 -3.422009,2.665526 -1.423056,0.196926 1.065086,0.283287 0.729204,1.346494 1.057137,1.952651 2.945931,-0.981407 4.165589,-1.371681 z m -8.632031,4.578736 c -0.165598,-1.796542 -2.397249,-1.067143 -3.173937,-2.759693 -1.103624,-1.015703 -2.396769,-3.271068 -2.580073,-3.968586 1.369518,0.387635 0.211067,1.093901 1.690811,1.434418 -0.408848,1.118324 0.62379,1.577983 0.439353,0.231173 -1.239195,-0.975232 0.09226,-2.293368 0.551417,-0.580858 0.424537,0.809027 2.510518,0.674274 3.088062,2.044075 0.706756,0.626466 0.880458,0.871883 0.323584,1.25788 0.660659,0.386833 -0.454741,1.917895 -0.339217,2.341591 z"
       id="path48"
       sodipodi:nodetypes="scccccccccccccccccccccccccccccccccccccccccccccccccccssccccccscccccccccccccccccccccsssccccccccccccccccccccccccccccccccccccccssccccccccccccccccccccc"
       transform="translate(32.964572,27.210221)" /><path
       style="fill:#28788b"
       d="m 53.70413,94.740975 c -0.260554,-0.417133 0.864044,-0.244379 0.04163,-0.654568 -1.529323,-0.178052 -0.843128,-1.705127 0.150518,-2.126746 0.840142,-0.909607 1.740675,-2.272838 1.143278,-3.531764 -0.657227,-0.556457 -0.561378,-1.348213 -1.341227,-1.251316 -0.112509,-1.060956 -0.930627,-0.750028 -0.349655,0.117691 0.650148,1.126261 -0.05004,2.816088 -0.04452,4.140835 -0.849287,1.195058 -0.130284,-1.776634 -1.337227,-0.954422 -0.673099,-0.647386 1.784603,-0.323911 1.364417,-1.510454 0.562059,-1.887753 -2.99459,-2.060101 -1.842142,-3.714884 1.294358,-0.332476 1.50949,-1.269092 1.619171,-2.449807 0.276968,-0.662784 1.168546,-2.454721 1.883267,-1.854601 -0.816144,0.798828 -0.514429,1.703917 -1.219089,2.590764 0.304983,1.054501 2.535014,-0.184096 2.667254,0.445513 -0.953988,0.473673 -2.786393,0.27129 -3.175,1.320725 1.319851,0.585333 2.841223,1.542208 2.693522,3.201204 0.445437,1.524846 -0.793812,2.711662 -0.276336,4.182908 0.01953,0.641572 -0.4725,2.261826 -0.874476,1.944164 -0.590004,-0.841436 -0.815747,1.059624 -1.103385,0.104758 z M 56.439804,77.67796 c -0.440843,-0.440374 -1.086328,-0.619393 -1.053704,-1.312924 -1.09485,-0.351758 -1.086716,-2.487274 -2.477709,-2.343053 -0.598129,0.07696 -0.690544,-0.321304 -1.277278,-0.182574 -1.119748,0.692037 -2.425032,-0.723063 -2.306588,-1.575718 0.354353,-0.632351 2.813018,-0.08294 4.118561,-0.870984 3.266335,-1.114742 2.013348,-1.878558 1.535082,-2.389556 -1.34058,-1.098844 -1.95173,-2.112059 -0.158105,-2.363096 0.891112,-0.08527 2.490305,0.409897 2.77975,-0.267075 -0.795635,0.146505 -1.403576,-1.07492 -1.801939,-1.097317 1.414845,-0.04978 2.513547,1.099179 3.910456,1.237707 1.923952,0.845265 3.6359,2.089868 5.231579,3.439448 1.637395,0.8867 1.139851,-1.78615 0.155183,-2.324436 -0.589852,-0.421456 -0.178071,-2.401518 -0.994114,-1.345335 -1.159678,-0.481967 -0.999,-2.124643 -2.560282,-1.876234 -0.78611,-0.04439 -1.948728,-0.23375 -1.864147,-1.027473 -0.994013,0.701536 -2.276863,0.648516 -3.379912,1.133609 -0.776217,0.225003 -1.353571,0.267334 -0.662179,-0.402446 -0.398508,-0.145263 -1.5439,-0.169116 -0.530978,-0.532877 0.305658,-0.7701 1.436344,-1.713243 2.584043,-1.587489 1.33547,-0.281269 2.256757,-1.371698 3.207718,-2.250861 -1.095365,1.010804 -0.181343,2.757123 1.076577,2.576416 0.02948,1.089597 1.777516,1.213155 2.711217,0.858372 0.919888,-0.78357 -0.376937,1.120581 0.104974,1.732686 0.484592,0.880786 2.516169,-0.136121 2.577367,1.521561 0.260573,1.746127 -0.882329,3.245288 -1.359039,4.829317 0.265747,0.814735 -1.179841,3.562347 -1.437974,1.64359 -0.793847,-0.865502 -1.882917,-1.734002 -2.55637,-2.526974 -0.460125,-0.09132 -1.202758,-1.293184 -1.338857,-0.02101 0.131809,1.123464 -1.395789,0.641963 -1.484287,0.60732 0.80841,1.082547 0.139446,2.302034 0.06583,3.336339 -0.289523,1.451992 -1.094614,3.043678 -2.52736,3.634479 -0.152645,0.05231 -0.319317,-0.09457 -0.28752,-0.253417 z"
       id="path47"
       sodipodi:nodetypes="cccccccccccccccccccscccccccccccccccccccccccccccccccss"
       transform="translate(32.964572,27.210221)" /><path
       style="display:inline;fill:#db8970"
       d="m 73.923762,133.49984 c -7.66497,0.0343 -4.805798,-2.43653 -0.186258,-6.39828 4.590491,-3.18935 9.466491,-2.85741 14.379754,-2.0659 0.944002,0.2168 2.294,0.001 2.914256,0.86921 0.919672,1.1512 2.666129,2.81538 3.418372,4.09462 -3.228339,1.75929 -10.450964,3.58381 -13.167663,4.14008 z"
       id="path2"
       sodipodi:nodetypes="ccccccc" /><path
       style="display:inline;fill:#c06b58"
       d="m 64.947095,135.4075 c -0.832764,-0.0561 -1.406546,-0.3266 -0.688155,-1.04693 2.042897,-1.73615 4.454558,-3.51979 8.2996,-6.45084 0.62634,-0.43371 1.26888,-0.8437 1.921375,-1.23684 0.828446,-0.11945 1.387619,-1.03988 2.278261,-0.89182 0.678587,-0.0748 1.081073,-0.85879 1.83007,-0.72765 0.766638,0.32753 0.05729,1.31101 -0.595742,1.14654 -0.542242,0.0796 -1.684946,-0.46932 -1.769035,0.28666 0.578523,0.43716 0.421185,1.12407 0.494471,1.73927 0.112272,0.66853 0.968381,0.96178 1.530151,0.83539 -0.04925,-0.31703 -0.07517,-0.90475 0.437701,-0.60287 0.564073,0.44718 0.767931,-0.24598 0.988812,-0.71507 0.64331,0.77924 1.711523,-1.30082 2.200982,-0.91607 0.489459,0.38474 0.717269,1.1131 0.385949,1.56821 -0.33132,0.45511 -0.285991,0.48357 0.396046,0.74524 0.682036,0.26166 -0.574306,1.22552 -0.388747,1.93485 0.202315,0.69254 0.683823,1.88542 -0.008,2.50893 -0.69183,0.6235 -1.215005,0.58993 -1.917098,0.72486 -4.205257,0.75604 -10.597066,1.46975 -15.396631,1.09819 z m 9.874915,-3.47058 c -0.370001,-0.67832 0.901117,-0.71114 0.634906,-1.4495 0.02425,-0.65017 0.52173,-1.11807 1.106725,-1.13952 0.211884,-0.77364 -1.0524,-0.64288 -1.490086,-0.95338 -0.658213,-0.0969 -0.409378,0.44242 -0.318716,0.74621 -0.558339,0.63215 -1.433366,0.21666 -2.144387,0.32771 -0.832098,-0.008 -1.311183,0.74712 -2.04549,0.99716 -0.736656,0.15224 -1.127635,1.25092 -0.149027,1.36517 1.32345,0.41749 2.68965,0.71277 4.06831,0.8775 0.44848,0.0519 0.462106,-0.48079 0.337765,-0.77135 z"
       id="path1"
       sodipodi:nodetypes="cccccccccccczzzczccccccccccccc" /><path
       style="display:inline;fill:#25160f;fill-opacity:1;stroke-width:2.43902;stroke-linecap:round"
       d="m 46.665228,65.962854 c 0.187909,0.238001 1.255844,1.581836 1.248575,1.939907 -0.0073,0.35807 -0.123024,0.721745 -0.359891,0.788034 -0.236868,0.06627 -0.700467,-0.151677 -0.9866,-0.415736 C 46.281179,68.011 46.068611,67.556233 45.98404,67.15195 c -0.08457,-0.404282 -0.05183,-0.974266 0.08067,-1.20998 0.132492,-0.235713 0.412612,-0.217115 0.600522,0.02089 z"
       id="path13"
       sodipodi:nodetypes="zzzzzzz" /></g></svg>
