<?xml version="1.0" encoding="UTF-8" standalone="no"?>
<!-- Created with Inkscape (http://www.inkscape.org/) -->

<svg
   width="100mm"
   height="100mm"
   viewBox="0 0 100 100"
   version="1.1"
   id="svg1"
   xml:space="preserve"
   inkscape:version="1.3 (0e150ed6c4, 2023-07-21)"
   sodipodi:docname="train_upgrade.svg"
   xmlns:inkscape="http://www.inkscape.org/namespaces/inkscape"
   xmlns:sodipodi="http://sodipodi.sourceforge.net/DTD/sodipodi-0.dtd"
   xmlns="http://www.w3.org/2000/svg"
   xmlns:svg="http://www.w3.org/2000/svg"><sodipodi:namedview
     id="namedview1"
     pagecolor="#ffffff"
     bordercolor="#000000"
     borderopacity="0.25"
     inkscape:showpageshadow="2"
     inkscape:pageopacity="0.0"
     inkscape:pagecheckerboard="0"
     inkscape:deskcolor="#d1d1d1"
     inkscape:document-units="mm"
     inkscape:zoom="1.5777006"
     inkscape:cx="77.644642"
     inkscape:cy="278.56996"
     inkscape:window-width="3840"
     inkscape:window-height="2054"
     inkscape:window-x="2869"
     inkscape:window-y="-11"
     inkscape:window-maximized="1"
     inkscape:current-layer="layer1" /><defs
     id="defs1" /><g
     inkscape:label="Layer 1"
     inkscape:groupmode="layer"
     id="layer1"><path
       id="path1"
      fill="#000000"
     stroke-width="1"
     stroke-opacity="0"
     class="primarycolor"
       d="m 73.647184,8.8568237 c -5.875567,-7.8e-5 -10.63884,1.9715853 -10.639144,4.4038653 0.0063,0.05501 0.01508,0.109972 0.02636,0.164848 -0.154338,-0.0035 -0.308912,-0.0054 -0.463537,-0.0057 -0.237858,0.0014 -0.475446,0.0065 -0.712101,0.0155 -2.221092,-2.677267 -8.243124,-4.4719947 -15.007353,-4.4725956 -7.960315,4.626e-4 -14.69176,2.4687626 -15.74891,5.7748416 -0.594403,-0.1692 -1.228086,-0.256169 -1.867586,-0.256315 -2.798474,-1.2e-5 -5.06716,1.62712 -5.067391,3.634403 0.0037,0.405199 0.101885,0.807099 0.290422,1.189075 H 21.088118 V 43.767871 H 12.64574 v 5.85339 h 4.390429 v 7.465694 c -0.174708,-0.0086 -0.349598,-0.01287 -0.524515,-0.01292 -5.954137,2.46e-4 -10.7807769,4.827117 -10.7807377,10.781254 -3.92e-5,5.954137 4.8266007,10.781008 10.7807377,10.781254 5.954338,3.9e-5 10.781293,-4.826916 10.781254,-10.781254 -8.81e-4,-0.756696 -0.08142,-1.511196 -0.240296,-2.251026 h 4.005957 c -0.167388,0.738924 -0.256419,1.493435 -0.265617,2.251026 -3.25e-4,5.954541 4.826714,10.781811 10.781255,10.781771 5.95454,3.9e-5 10.781579,-4.827231 10.781254,-10.781771 -8.81e-4,-0.756696 -0.08142,-1.511196 -0.240296,-2.251026 h 3.893303 c -0.167388,0.738924 -0.256419,1.493435 -0.265617,2.251026 0.02994,0.394071 0.08152,0.786198 0.154512,1.174605 5.581348,-9.402802 11.1623,-18.806041 16.743164,-28.209131 v -3.735689 h 2.217436 c 0.761023,-1.282255 1.522052,-2.564533 2.283065,-3.846794 H 55.924752 v 3.846794 h 0.05684 v 6.682279 h -4.807975 c 0.02093,-0.199468 0.03541,-0.39956 0.04341,-0.599963 -6.3e-5,-5.139107 -4.166268,-9.305081 -9.305375,-9.304858 -5.138906,6.2e-5 -9.304796,4.165952 -9.304859,9.304858 0.0078,0.200398 0.02213,0.40049 0.04289,0.599963 H 29.004431 V 21.739758 c 0.0767,0.0049 0.153546,0.0085 0.230477,0.01085 2.063874,-8.09e-4 3.920855,-0.899354 4.694804,-2.271696 2.974129,1.753828 7.787184,2.797475 12.921692,2.801897 5.231007,-0.0054 10.120651,-1.089156 13.075171,-2.898015 0.85127,0.108132 1.744453,0.163989 2.644283,0.165365 3.559732,-0.0023 6.715552,-0.849481 7.832597,-2.102714 1.047299,0.14215 2.141597,0.216068 3.243729,0.219108 5.875568,7.8e-5 10.638841,-1.971586 10.639144,-4.403866 -3.04e-4,-2.43228 -4.763577,-4.4039433 -10.639144,-4.4038653 z"
       sodipodi:nodetypes="ccccccccccccccccccccccccccccccccccccccccccccccccccccc" /><path
       id="rect3"
       style="display:inline;fill:#2f9320;fill-opacity:1;stroke-width:3.18701"
       d="m 79.920423,38.496615 -18.217495,30.6958 h 8.612395 v 26.588042 h 19.44791 V 69.192415 h 8.37468 z" /></g></svg>
