<?xml version="1.0" encoding="UTF-8" standalone="no"?>
<!-- Created with Inkscape (http://www.inkscape.org/) -->

<svg
   width="100mm"
   height="100mm"
   viewBox="0 0 100 100"
   version="1.1"
   id="svg1"
   xml:space="preserve"
   inkscape:version="1.3 (0e150ed6c4, 2023-07-21)"
   sodipodi:docname="train.svg"
   xmlns:inkscape="http://www.inkscape.org/namespaces/inkscape"
   xmlns:sodipodi="http://sodipodi.sourceforge.net/DTD/sodipodi-0.dtd"
   xmlns="http://www.w3.org/2000/svg"
   xmlns:svg="http://www.w3.org/2000/svg"><sodipodi:namedview
     id="namedview1"
     pagecolor="#ffffff"
     bordercolor="#000000"
     borderopacity="0.25"
     inkscape:showpageshadow="2"
     inkscape:pageopacity="0.0"
     inkscape:pagecheckerboard="0"
     inkscape:deskcolor="#d1d1d1"
     inkscape:document-units="mm"
     inkscape:zoom="1.5777006"
     inkscape:cx="187.29789"
     inkscape:cy="227.22942"
     inkscape:window-width="3840"
     inkscape:window-height="2054"
     inkscape:window-x="2869"
     inkscape:window-y="-11"
     inkscape:window-maximized="1"
     inkscape:current-layer="layer1" /><defs
     id="defs1" /><g
     inkscape:label="Layer 1"
     inkscape:groupmode="layer"
     id="layer1"><path
       id="path1"
       fill="#000000"
		 stroke-width="1"
		 stroke-opacity="0"
		 class="primarycolor"
       d="M 82.711747 14.319023 A 11.887959 4.9211998 0 0 0 70.823584 19.240169 A 11.887959 4.9211998 0 0 0 70.852523 19.424137 A 9.2346611 3.4240878 0 0 0 70.334725 19.417936 A 9.2346611 3.4240878 0 0 0 69.538908 19.435506 A 17.757822 7.4410906 0 0 0 52.769389 14.437362 A 17.757822 7.4410906 0 0 0 35.171497 20.890715 A 5.662344 4.0614719 0 0 0 33.084802 20.60391 A 5.662344 4.0614719 0 0 0 27.422099 24.665161 A 5.662344 4.0614719 0 0 0 27.746627 25.993762 L 23.981482 25.993762 L 23.981482 53.329045 L 14.547949 53.329045 L 14.547949 59.869731 L 19.453593 59.869731 L 19.453593 68.212374 A 12.047056 12.047056 0 0 0 18.867582 68.197904 A 12.047056 12.047056 0 0 0 6.8207723 80.245231 A 12.047056 12.047056 0 0 0 18.867582 92.292041 A 12.047056 12.047056 0 0 0 30.914909 80.245231 A 12.047056 12.047056 0 0 0 30.646191 77.729622 L 35.122404 77.729622 A 12.047056 12.047056 0 0 0 34.825781 80.245231 A 12.047056 12.047056 0 0 0 46.872591 92.292558 A 12.047056 12.047056 0 0 0 58.919918 80.245231 A 12.047056 12.047056 0 0 0 58.6512 77.729622 L 63.001839 77.729622 A 12.047056 12.047056 0 0 0 62.705216 80.245231 A 12.047056 12.047056 0 0 0 74.752026 92.292041 A 12.047056 12.047056 0 0 0 86.799353 80.245231 A 12.047056 12.047056 0 0 0 86.534253 77.745642 L 91.970614 77.745642 L 91.970614 73.259611 L 84.563314 73.259611 A 12.047056 12.047056 0 0 0 81.586751 70.328007 L 81.586751 45.8618 L 87.603438 45.8618 L 87.603438 41.563354 L 62.908305 41.563354 L 62.908305 45.8618 L 62.971867 45.8618 L 62.971867 53.329045 L 57.599585 53.329045 A 10.397515 10.397515 0 0 0 57.647644 52.658285 A 10.397515 10.397515 0 0 0 47.249829 42.260986 A 10.397515 10.397515 0 0 0 36.852531 52.658285 A 10.397515 10.397515 0 0 0 36.90059 53.329045 L 32.827454 53.329045 L 32.827454 28.714526 A 5.662344 4.0614719 0 0 0 33.084802 28.726929 A 5.662344 4.0614719 0 0 0 38.330994 26.188582 A 17.757822 7.4410906 0 0 0 52.769389 29.319657 A 17.757822 7.4410906 0 0 0 67.379867 26.081095 A 9.2346611 3.4240878 0 0 0 70.334725 26.266097 A 9.2346611 3.4240878 0 0 0 79.087162 23.91637 A 11.887959 4.9211998 0 0 0 82.711747 24.161316 A 11.887959 4.9211998 0 0 0 94.59991 19.240169 A 11.887959 4.9211998 0 0 0 82.711747 14.319023 z " /></g></svg>
